<?xml version="1.0" standalone="no"?>
<!DOCTYPE svg PUBLIC "-//W3C//DTD SVG 1.1//EN" "http://www.w3.org/Graphics/SVG/1.1/DTD/svg11.dtd" >
<!--
2013-9-30: Created.
-->
<svg>
<metadata>
Created by iconfont
</metadata>
<defs>

<font id="pow" horiz-adv-x="1024" >
  <font-face
    font-family="pow"
    font-weight="500"
    font-stretch="normal"
    units-per-em="1024"
    ascent="896"
    descent="-128"
  />
    <missing-glyph />
    
    <glyph glyph-name="gaojingshijian" unicode="&#58984;" d="M757.76 302.08c-90.624 0-163.84-73.216-163.84-163.84s73.216-163.84 163.84-163.84 163.84 73.216 163.84 163.84-73.216 163.84-163.84 163.84z m0-288.768c-69.12 0-124.928 55.808-124.928 124.928s55.808 124.928 124.928 124.928 124.928-55.808 124.928-124.928c0-69.12-55.808-124.928-124.928-124.928zM516.096 635.904c-162.304 0-293.376-131.584-293.376-293.376v-293.376h-39.936c-14.848 0-26.624-11.776-26.624-26.624s11.776-26.624 26.624-26.624h455.168c-17.92 14.848-32.768 32.768-44.032 52.736h-51.2v106.496c0 14.848-11.776 26.624-26.624 26.624-14.848 0-26.624-11.776-26.624-26.624v-106.496H276.48v293.376c0 132.608 107.52 239.616 239.616 239.616s239.616-107.52 239.616-239.616v-17.408c18.432 0 36.352-2.56 53.248-7.68v25.6c0.512 161.792-131.072 293.376-292.864 293.376z m360.96-19.456c-10.24 10.24-27.136 10.24-37.376 0l-37.376-37.376c-10.24-10.752-9.728-27.136 1.024-37.376 10.24-9.728 26.624-9.728 36.864 0l37.376 37.376c9.728 10.24 9.728 26.624-0.512 37.376zM237.568 605.184L199.68 643.072c-10.752 10.24-27.136 9.728-37.376-1.024-9.728-10.24-9.728-26.624 0-36.864l37.376-37.376c10.752-10.24 27.136-9.728 37.376 1.024 10.24 9.728 10.24 26.112 0.512 36.352z m279.04 163.328c-14.848 0-26.624-11.776-26.624-26.624v-53.248c0-14.848 11.264-26.624 26.624-26.624s26.624 11.776 26.624 26.624V741.888c-0.512 14.848-12.288 26.624-26.624 26.624zM516.608 421.888c-58.88 0-106.496-47.616-106.496-106.496s47.616-106.496 106.496-106.496 106.496 47.616 106.496 106.496-47.616 106.496-106.496 106.496z m0-159.744c-29.184 0-53.248 24.064-53.248 53.248s24.064 53.248 53.248 53.248 53.248-24.064 53.248-53.248-24.064-53.248-53.248-53.248zM745.984 97.28c-9.728 0-17.92 8.192-17.92 17.92v85.504c0 9.728 8.192 17.92 17.92 17.92s17.92-8.192 17.92-17.92v-68.096h53.248c9.728 0 17.92-8.192 17.92-17.92s-8.192-17.92-17.92-17.92l-71.168 0.512z"  horiz-adv-x="1024" />

    
    <glyph glyph-name="chuangjianshijian" unicode="&#58985;" d="M523.776 76.8H317.952c-101.376 0-182.272 78.848-182.272 176.64V587.264c0 98.304 80.896 176.64 182.272 176.64h323.584c101.376 0 182.272-78.848 182.272-176.64v-145.408c0-15.872-12.288-27.648-28.16-27.648s-28.16 11.776-28.16 27.648V587.264c0 67.072-56.832 121.344-125.44 121.344H317.952c-68.608 0-125.44-54.784-125.44-121.344v-333.312c0-67.072 56.832-121.856 125.44-121.856h206.336c15.872 0 28.16-11.776 28.16-27.648s-12.288-27.648-28.672-27.648zM720.896 43.52c-87.552 0-159.744 72.192-159.744 163.328-1.024 89.6 71.68 162.816 161.28 163.328h2.56c89.6 1.024 162.816-71.68 163.328-161.28v-2.56c-3.584-90.112-76.288-162.816-167.424-162.816z m0 285.696c-64.512 0-118.272-57.344-118.272-121.856-1.024-66.56 52.224-120.832 118.272-121.856h3.584c66.56-1.024 120.832 52.224 121.856 118.272v3.072c-3.584 65.536-56.832 122.368-125.44 122.368zM717.312 162.816c-9.728 0-17.92 8.192-17.92 17.92v84.992c0 9.728 8.192 17.92 17.92 17.92s17.92-8.192 17.92-17.92v-67.584h52.736c9.728 0 17.92-8.192 17.92-17.92s-8.192-17.92-17.92-17.92l-70.656 0.512zM479.232 263.168c-17.92 0-31.744 14.336-31.744 31.744V572.416c0 17.92 14.336 31.744 31.744 31.744 17.92 0 31.744-14.336 31.744-31.744v-277.504c0-17.92-13.824-31.744-31.744-31.744zM618.496 401.408H340.48c-17.92 0-31.744 14.336-31.744 31.744 0 17.92 14.336 31.744 31.744 31.744h277.504c17.92 0 31.744-14.336 31.744-31.744 0.512-17.408-14.336-31.744-31.232-31.744z"  horiz-adv-x="1024" />

    
    <glyph glyph-name="KDC" unicode="&#58982;" d="M175.616 536.064v-307.2H110.08v307.2h65.536z m2.048-152.064l117.248 151.552h86.528l-128-151.552 122.368-154.624h-87.04L177.664 384zM413.696 536.064h130.048c32.768 0 57.856-3.072 75.264-9.216 32.768-12.288 54.784-33.792 66.048-66.048 8.192-24.576 12.288-50.688 12.288-78.848 0-27.648-4.096-53.76-12.288-78.336-8.192-25.088-20.992-43.008-39.936-55.296-11.776-7.168-24.576-12.288-38.4-15.36-13.824-3.072-35.84-3.584-63.488-3.584H413.184V536.064h0.512zM479.232 481.28v-197.632h65.536c28.16 0 48.64 6.656 59.392 18.432 6.656 8.192 12.288 18.432 16.896 33.28 4.096 14.336 6.656 29.696 6.656 46.08 0 17.92-2.56 34.816-7.168 50.176-4.608 15.36-11.776 26.112-19.456 33.28-11.776 9.728-30.208 15.872-54.784 15.872-2.048 0.512-67.072 0.512-67.072 0.512zM976.896 283.136v-54.784h-107.52c-20.48 0-35.84 0.512-46.08 3.072-37.376 7.168-64 28.16-80.384 62.976-9.728 23.552-15.872 51.712-15.872 87.04 0 41.472 8.192 74.752 24.064 100.352 11.776 18.432 27.648 32.768 47.104 41.472 19.456 8.704 45.056 12.8 75.264 12.8H977.92V481.28h-97.28c-29.184 0-50.688-8.192-63.488-23.552-11.776-12.8-17.408-36.352-17.408-70.144 0-45.568 8.704-75.264 26.112-89.088 12.288-9.728 30.72-14.336 57.856-14.336h93.696v-0.512h-0.512z"  horiz-adv-x="1024" />

    
    <glyph glyph-name="ADC" unicode="&#58983;" d="M40.96 269.824l127.488 306.688h75.776l126.976-306.688h-76.8l-29.696 70.656H147.456L117.76 269.824H40.96z m165.376 232.96l-43.52-107.52h87.552l-44.032 107.52zM403.968 577.024h130.56c32.256 0 57.856-3.072 75.776-9.216 32.256-12.288 54.784-34.304 66.048-66.048 7.68-24.576 12.288-50.688 12.288-78.848 0-27.648-4.096-53.76-12.288-77.824-7.68-25.6-21.504-43.52-39.424-55.296-11.776-7.168-24.576-12.288-38.4-15.36s-35.328-3.584-64-3.584H402.944V577.024h1.024zM468.992 522.24v-197.632h65.024c28.16 0 48.64 6.656 59.392 18.944 6.656 7.68 12.288 18.944 16.384 33.28 4.096 14.848 6.656 29.696 6.656 46.592 0 18.432-2.56 34.816-7.168 50.176-5.12 15.36-11.776 26.112-19.456 33.28-11.776 10.24-30.72 15.872-54.784 15.872 0-0.512-66.048-0.512-66.048-0.512zM967.168 324.096v-54.784h-107.52c-19.968 0-35.328 0.512-46.592 3.072-37.888 7.168-64.512 28.16-80.384 62.976-10.24 23.04-15.872 51.712-15.872 86.528 0 41.472 7.68 74.24 23.552 100.352 11.776 18.944 27.648 32.256 47.104 41.472 19.456 8.704 45.056 12.8 75.776 12.8H967.68V522.24h-97.792c-28.672 0-50.688-7.68-64-23.04-11.776-12.8-16.896-35.84-16.896-70.144 0-45.568 8.704-75.776 26.112-89.088 12.288-10.24 31.232-14.848 57.856-14.848h93.696v-0.512h0.512z"  horiz-adv-x="1024" />

    
    <glyph glyph-name="shebeishujuzhongxin" unicode="&#58980;" d="M833.024 697.856c-19.968 2.56-37.888-11.264-40.448-31.232v-565.248c1.024-18.432 16.896-32.256 35.328-31.232h0.512c18.432-1.024 34.816 12.8 35.84 31.744V666.112c-2.048 16.384-14.848 29.696-31.232 31.744z m-165.888 0H493.568c-18.944 1.024-35.84-13.312-37.376-32.256v-497.664h-49.152v496.64c-2.048 18.432-18.432 32.256-36.864 31.232H196.608c-18.432 1.024-34.816-12.288-36.352-31.232V102.4c1.536-18.944 18.432-32.768 36.864-31.232h172.544c18.944-1.536 35.328 12.288 36.864 31.232v22.016H455.68v-22.016c2.048-18.432 18.432-32.256 37.376-31.232h173.056c18.432-1.536 35.328 12.288 36.864 31.232V664.576c-0.512 18.432-15.872 33.28-34.304 32.768h-1.536zM270.336 123.904h-48.128v44.032h48.128v-44.032z m75.264 475.648H220.672v44.032h124.416l0.512-44.032z m0-69.632H220.672v44.032h124.416l0.512-44.032z m221.696-406.016h-49.152v44.032h49.152v-44.032z m74.752 475.648h-124.416v44.032h124.416v-44.032z m0-69.632h-124.416v44.032h124.416v-44.032z"  horiz-adv-x="1024" />

    
    <glyph glyph-name="zhushujuzhongxin1" unicode="&#58981;" d="M229.376 293.376H793.6V464.384H229.376v-171.008z m447.488 110.592c14.336 0 25.088-11.264 26.112-24.064 0-14.336-11.264-25.088-24.064-26.112-13.312-1.024-25.088 11.264-26.112 24.064-0.512 14.336 10.752 26.112 24.064 26.112z m-80.896 0c10.24 0 18.944-6.144 23.04-15.36 4.096-9.216 2.048-19.968-5.12-27.136s-17.92-9.216-27.136-6.144c-9.216 4.096-15.872 13.312-15.872 23.04 1.024 14.848 12.288 25.6 25.088 25.6z m-285.696 0h140.8v-50.176H310.272v50.176zM751.104 686.08H272.896c-23.04 0-42.496-18.944-42.496-42.496v-129.024h563.712V643.584c-0.512 23.552-19.968 42.496-43.008 42.496zM451.072 575.488H310.272v50.176h140.8v-50.176z m146.944 0c-9.216 0-17.92 4.096-23.04 12.288-5.12 8.192-5.12 16.896-1.024 25.088 4.096 8.192 13.312 13.312 22.016 13.312 13.312 0 24.064-11.264 25.088-24.064 1.024-14.848-8.704-25.6-23.04-26.624z m80.384 0c-14.336 0-25.088 11.264-26.112 24.064 0 14.336 11.264 25.088 24.064 26.112 14.336 0 25.088-11.264 26.112-24.064 0.512-14.336-10.752-26.112-24.064-26.112z m-406.528-322.56h-42.496v-140.8c0-16.896 13.312-30.208 30.208-30.208H762.88c15.872 0 30.208 13.312 30.208 30.208v140.8H271.872z m179.2-110.592H310.272v50.176h140.8v-50.176z m145.92 0c-14.336 0-25.088 11.264-25.088 25.088 0 14.336 11.264 25.088 25.088 25.088 14.336 0 25.088-11.264 25.088-25.088s-10.752-25.088-25.088-25.088z m80.896 0c-14.336 0-25.088 11.264-25.088 25.088 0 14.336 11.264 25.088 25.088 25.088 14.336 0 25.088-11.264 25.088-25.088s-11.264-25.088-25.088-25.088z"  horiz-adv-x="1024" />

    
    <glyph glyph-name="keziguanbianniu" unicode="&#58978;" d="M643.072 210.432L512 341.504l-131.072-131.072c-11.776-11.776-31.232-11.776-42.496 0-11.776 11.776-11.776 31.232 0 42.496L469.504 384 338.432 515.072c-11.776 11.776-11.776 31.232 0 42.496 11.776 11.264 31.232 11.776 42.496 0L512 426.496l131.072 131.072c11.776 11.776 31.232 11.776 42.496 0 11.776-11.776 11.776-31.232 0-42.496L554.496 384l131.072-131.072c11.776-11.776 11.776-31.232 0-42.496-11.264-11.776-30.208-11.776-42.496 0"  horiz-adv-x="1024" />

    
    <glyph glyph-name="kezizuixiaohua" unicode="&#58979;" d="M296.448 353.792c-16.896 0-30.72 13.824-30.208 30.208 0 16.896 13.824 30.72 30.208 30.208h431.104c16.896 0 30.72-13.824 30.208-30.208 0-16.896-13.824-30.72-30.208-30.208"  horiz-adv-x="1024" />

    
    <glyph glyph-name="dukaqi-comm" unicode="&#58973;" d="M789.504 394.752H747.52V455.68h41.984c15.36 0 28.16 12.8 28.16 28.16V646.144c0 15.36-12.8 28.16-28.16 28.16h-558.08c-15.36 0-28.16-12.8-28.16-28.16v-161.28c0-15.36 12.8-28.16 28.16-28.16h41.984v-60.928h-41.984c-49.664 0-89.6 39.936-89.6 89.6V646.144c0 49.664 39.936 89.6 89.6 89.6h558.08c49.664 0 89.6-39.936 89.6-89.6v-162.304c0-49.152-39.936-89.088-89.6-89.088zM735.744 507.904H288.256c-21.504 0-38.912 15.872-38.912 35.84v12.288c0 19.968 17.408 35.84 38.912 35.84h448.512c21.504 0 38.912-15.872 38.912-35.84v-12.288c-0.512-19.968-18.432-35.84-39.936-35.84zM718.336 352.768v153.6c0 46.08-38.4 83.968-83.968 83.968H390.656c-46.08 0-83.968-38.4-83.968-83.968v-427.52c0-46.08 38.4-83.968 83.968-83.968h243.712c11.264 0 22.528 2.56 32.768 6.656-28.672 11.776-53.248 30.72-72.192 54.272H390.656c-12.288 0-23.04 10.752-23.04 23.04V506.368c0 12.288 10.752 23.04 23.04 23.04h243.712c12.288 0 23.04-10.752 23.04-23.04v-171.008c18.432 9.216 39.424 15.36 60.928 17.408zM475.136 171.008h-6.144c-18.432 0-33.792 15.36-33.792 33.792v49.664c0 18.432 15.36 33.792 33.792 33.792h6.144c18.432 0 33.792-15.36 33.792-33.792v-49.664c0-18.944-14.336-33.792-33.792-33.792zM743.424 342.016c-94.208 0-170.496-76.288-170.496-170.496s76.288-170.496 170.496-170.496 170.496 76.288 170.496 170.496-75.776 170.496-170.496 170.496z m0-317.44c-81.408 0-146.944 66.048-146.944 146.944 0 81.408 66.048 146.944 146.944 146.944s146.944-66.048 146.944-146.944-65.536-146.944-146.944-146.944zM818.176 160.768c-17.92 20.48-44.032 34.816-74.24 34.816-28.672 0-56.832-12.8-74.24-32.768-1.536-3.584 1.536-10.752 7.168-16.384 7.168-5.12 14.848-7.168 16.384-3.584 12.8 14.848 31.232 23.552 50.688 23.552 17.92 0 36.864-7.168 49.152-20.48 1.536-3.584 9.216-1.536 16.384 3.584 7.168 1.536 10.24 7.168 8.704 11.264zM789.504 123.904c-10.752 12.288-26.624 20.992-45.568 20.992-17.92 0-34.304-7.168-45.568-19.968-1.024-2.048 1.024-6.144 4.608-10.24 4.608-3.584 8.704-4.608 10.24-2.048 7.168 8.704 18.944 14.848 31.232 14.848 10.752 0 22.016-4.608 30.208-12.288 1.024-2.048 5.632-1.024 10.24 2.048 3.072 2.048 5.12 4.608 4.608 6.656zM856.576 189.44c0 2.048-1.536 2.048 0 0-1.536 2.048-1.536 2.048 0 0-1.536 2.048-1.536 2.048 0 0-29.184 32.768-67.584 52.224-112.64 52.224-44.032 0-83.968-20.48-111.616-50.688-3.584-3.584 0-10.752 7.168-16.384s14.848-7.168 17.92-3.584c22.016 23.552 50.688 39.936 85.504 39.936 34.304 0 65.536-14.848 87.552-39.936 3.584-1.536 10.752 0 16.384 5.12 6.144 4.608 9.728 10.24 9.728 13.312zM743.424 84.992m-17.92 0a17.92 17.92 0 1 1 35.84 0 17.92 17.92 0 1 1-35.84 0Z"  horiz-adv-x="1024" />

    
    <glyph glyph-name="FIDSController" unicode="&#58974;" d="M869.888 452.096v-70.144h70.144V452.096h-70.144z m-97.28 176.128L713.728 558.08v-202.752c26.624 15.36 57.344 24.064 90.112 24.064 10.752 0 20.992-1.024 31.232-2.56V558.08l-62.464 70.144z m3.584-246.784c-15.36 0-27.648 12.288-27.648 27.648 0 15.872 11.776 27.648 27.648 27.648 15.872 0 27.648-11.776 27.648-27.648 0-15.872-11.776-27.648-27.648-27.648z m-148.48-120.32v-20.48c1.536 7.168 3.584 13.824 6.144 20.48h-6.144z m0 190.976v-70.144h50.688V452.096h-50.688z m-97.792 176.64L467.456 558.08l3.584-437.248h121.344V558.592l-62.464 70.144z m0-438.272c-15.36 0-27.648 11.776-27.648 27.648 0 15.872 11.776 27.648 27.648 27.648s27.648-11.776 27.648-27.648c0-15.872-11.776-27.648-27.648-27.648z m0 190.976c-15.36 0-27.648 11.776-27.648 27.648 0 15.872 11.776 27.648 27.648 27.648s27.648-11.776 27.648-27.648c0-15.872-11.776-27.648-27.648-27.648zM380.928 261.12v-70.144h50.688V261.12h-50.688z m0 190.976v-70.144h50.688V452.096h-50.688z m-97.28 176.128L224.768 558.08v-437.76h121.344V558.08L283.648 628.224z m0-437.76c-11.776 0-23.04 11.776-27.648 27.648 0 15.872 11.776 27.648 27.648 27.648 15.872 0 27.648-11.776 27.648-27.648 0-15.872-11.776-27.648-27.648-27.648z m0 190.976c-11.776 0-23.04 12.288-27.648 27.648 0 15.872 11.776 27.648 27.648 27.648 15.872 0 27.648-11.776 27.648-27.648 0-15.872-11.776-27.648-27.648-27.648z m-163.84-120.32v-70.144h70.656V261.12H119.808z m0 190.976v-70.144h70.656V452.096H119.808zM815.104 358.912c-100.352 0-181.248-81.408-181.248-181.248 0-100.352 81.408-181.248 181.248-181.248 100.352 0 181.248 81.408 181.248 181.248s-80.896 181.248-181.248 181.248z m0-337.92c-86.528 0-156.16 70.144-156.16 156.16 0 86.528 70.144 156.16 156.16 156.16s156.16-70.144 156.16-156.16-69.632-156.16-156.16-156.16zM894.464 165.888c-18.944 22.016-47.104 36.864-79.36 36.864-30.72 0-60.416-13.312-79.36-35.328-1.536-4.096 1.536-11.776 7.68-17.408 7.68-5.632 15.872-7.68 17.408-4.096 13.312 15.872 33.28 25.088 54.272 25.088 18.944 0 38.912-7.68 52.736-22.016 1.536-4.096 10.24-1.536 17.408 4.096 7.68 2.56 10.752 8.704 9.216 12.8zM863.744 126.976c-11.776 12.8-28.16 22.016-48.64 22.016-18.944 0-36.352-7.68-48.64-21.504-1.024-2.048 1.024-6.656 5.12-10.752 5.12-4.096 9.216-5.12 10.752-2.048 7.68 9.216 19.968 15.872 33.28 15.872 11.776 0 23.552-5.12 31.744-12.8 1.024-2.048 6.144-1.024 10.752 2.048 4.096 2.048 6.656 4.608 5.632 7.168zM935.424 196.608c0 2.56-1.536 2.56 0 0-1.536 2.56-1.536 2.56 0 0-1.536 2.56-1.536 2.56 0 0-30.72 35.328-72.192 55.808-120.32 55.808-47.104 0-89.6-22.016-118.784-54.272-4.096-4.096 0-11.776 7.68-17.408s15.872-7.68 18.944-4.096c23.552 25.088 54.272 42.496 91.136 42.496 36.864 0 70.144-15.872 93.184-42.496 4.096-1.536 11.776 0 17.408 5.632 6.656 4.608 10.752 10.752 10.752 14.336zM815.104 85.504m-18.944 0a18.944 18.944 0 1 1 37.888 0 18.944 18.944 0 1 1-37.888 0Z"  horiz-adv-x="1024" />

    
    <glyph glyph-name="RTU-comm" unicode="&#58975;" d="M735.744 728.064H287.744c-66.048 0-119.808-53.76-119.808-119.808v-448c0-66.048 53.76-119.808 119.808-119.808h328.192c-10.24 14.336-17.92 30.208-24.064 47.104H287.744c-39.936 0-72.192 32.256-72.192 72.192V607.744c0 39.936 32.256 72.192 72.192 72.192v0.512h448c39.936 0 72.192-32.256 72.192-72.192v-274.432c16.896-3.072 32.768-8.704 47.616-16.384V608.256c0 66.048-53.76 119.808-119.808 119.808zM325.632 500.736v-256h282.624c17.408 29.184 41.984 53.248 71.68 69.632l17.92 8.704V500.736H325.632z m-92.672-139.776v-46.592h116.224v46.592H232.96z m0 139.776v-46.592h116.224v46.592H232.96z m464.896-177.664c22.528 9.216 47.104 14.848 73.216 14.848 6.656 0 13.312-0.512 19.968-1.024v24.576h-116.224v-46.592m0 185.856v-46.592h116.224v46.592h-116.224z m261.12-220.672h-29.184c13.824-13.824 25.088-30.208 33.792-48.128 12.8 1.536 19.456 9.728 19.456 24.064 0 15.872-8.192 24.064-24.064 24.064z m0 128h-80.384c-15.36 0-23.552-8.192-23.552-24.064s8.192-24.064 23.552-24.064h80.384c15.872 0 24.064 8.192 24.064 24.064s-8.192 24.064-24.064 24.064z m0 128h-80.384c-15.36 0-23.552-8.192-23.552-24.064s8.192-24.064 23.552-24.064h80.384c15.872 0 24.064 8.192 24.064 24.064s-8.192 24.064-24.064 24.064z m-768-256H88.064c-15.872 0-24.064-8.192-24.064-24.064s8.192-24.064 24.064-24.064h79.872c15.872 0 24.064 8.192 24.064 24.064s-8.192 24.064-24.064 24.064z m0 128H88.064c-15.872 0-24.064-8.192-24.064-24.064s8.192-24.064 24.064-24.064h79.872c15.872 0 24.064 8.192 24.064 24.064s-8.192 24.064-24.064 24.064z m0 128H88.064c-15.872 0-24.064-8.192-24.064-24.064s8.192-24.064 24.064-24.064h79.872c15.872 0 24.064 8.192 24.064 24.064s-8.192 24.064-24.064 24.064z m448-495.616v-80.384c0-15.872 8.192-24.064 24.064-24.064s24.064 8.192 24.064 24.064v32.768c-18.944 12.8-35.328 29.184-48.128 47.616z m-103.936 23.552c-15.872 0-24.064-8.192-24.064-23.552v-80.384c0-15.872 8.192-24.064 24.064-24.064s24.064 8.192 24.064 24.064v80.384c0 15.36-8.192 23.552-24.064 23.552z m-128 0c-15.872 0-24.064-8.192-24.064-23.552v-80.384c0-15.872 8.192-24.064 24.064-24.064s24.064 8.192 24.064 24.064v80.384c0 15.36-8.192 23.552-24.064 23.552z m256 768c-15.872 0-24.064-8.192-24.064-24.064v-79.872c0-15.872 8.192-24.064 24.064-24.064s24.064 8.192 24.064 24.064V807.936c0 15.872-8.192 24.064-24.064 24.064z m-128 0c-15.872 0-24.064-8.192-24.064-24.064v-79.872c0-15.872 8.192-24.064 24.064-24.064s24.064 8.192 24.064 24.064V807.936c0 15.872-8.192 24.064-24.064 24.064z m-128 0c-15.872 0-24.064-8.192-24.064-24.064v-79.872c0-15.872 8.192-24.064 24.064-24.064s24.064 8.192 24.064 24.064V807.936c0 15.872-8.192 24.064-24.064 24.064zM771.072 318.976c-94.208 0-169.984-76.288-169.984-169.984 0-94.208 76.288-169.984 169.984-169.984 94.208 0 169.984 76.288 169.984 169.984 0 93.696-75.776 169.984-169.984 169.984z m0-316.416c-80.896 0-146.432 65.536-146.432 146.432s65.536 146.432 146.432 146.432 146.432-65.536 146.432-146.432-65.536-146.432-146.432-146.432zM845.312 138.24c-17.92 20.48-44.032 34.816-74.24 34.816-28.672 0-56.32-12.8-74.24-32.768-1.536-3.584 1.536-10.752 7.168-16.384 7.168-5.12 14.848-7.168 16.384-3.584 12.8 14.848 31.232 23.552 50.688 23.552 17.92 0 36.352-7.168 49.152-20.48 1.536-3.584 9.216-1.536 16.384 3.584 7.168 1.536 10.24 7.168 8.704 11.264zM816.64 101.376c-10.752 12.288-26.624 20.992-45.568 20.992-17.92 0-34.304-7.168-45.568-19.968-1.024-2.048 1.024-6.144 4.608-9.728 4.608-3.584 8.704-4.608 9.728-2.048 7.168 8.704 18.944 14.848 31.232 14.848 10.752 0 22.016-4.608 29.696-12.288 1.024-2.048 5.632-1.024 9.728 2.048 5.12 1.536 7.168 4.096 6.144 6.144zM883.712 166.912c0 2.048-1.536 2.048 0 0-1.536 2.048-1.536 2.048 0 0-1.536 2.048-1.536 2.048 0 0-29.184 32.768-67.584 52.224-112.64 52.224-44.032 0-83.968-20.48-111.104-50.688-3.584-3.584 0-10.752 7.168-16.384s14.848-7.168 17.92-3.584c22.016 23.552 50.688 39.936 85.504 39.936 34.304 0 65.536-14.848 87.552-39.936 3.584-1.536 10.752 0 16.384 5.12 5.632 4.608 9.216 10.24 9.216 13.312zM771.072 62.976m-17.92 0a17.92 17.92 0 1 1 35.84 0 17.92 17.92 0 1 1-35.84 0Z"  horiz-adv-x="1024" />

    
    <glyph glyph-name="BACS-comm" unicode="&#58976;" d="M784.896 502.272l-2.56 2.56c-36.352 19.456-123.904 39.424-258.56 36.352H512l13.824-36.352h5.632c101.376 0 194.048-16.896 227.84-36.352l168.96-191.488 50.688 2.56-194.048 222.72zM779.264 212.48l-5.632-2.56s-39.424-10.752-83.968 0.512c-13.312 3.072-26.624 8.192-39.936 16.384-6.656 4.096-13.312 8.704-19.456 14.336l-5.632 5.632-19.456-24.064c5.632-7.168 10.752-14.848 15.36-23.04 0.512-0.512 1.024-0.512 1.536-1.024 11.264-7.68 23.552-14.336 36.352-19.968 23.04-9.216 47.616-14.336 73.216-14.336 30.72 0 50.688 5.632 53.248 5.632l5.632 2.56-11.264 39.936z m-28.16 87.04l-5.632-3.072c-11.264-5.632-28.16-11.264-41.984-11.264-39.424 0-64.512 28.16-67.584 53.248l-2.56 16.896h-112.64c-5.632 0-14.336 2.56-16.896 5.632-2.56 2.56-5.632 8.192-5.632 11.264 0 5.632 2.56 8.704 5.632 11.264 5.632 5.632 11.264 8.704 19.968 8.704l214.016 2.56v39.424l-214.016-2.56c-16.896 0-33.792-5.632-45.056-16.896-11.264-11.264-19.456-25.088-19.456-41.984 0-13.824 5.632-28.16 16.896-39.424l2.56-2.56c11.264-11.264 28.16-16.896 45.056-16.896H599.04c14.336-39.424 56.32-67.584 103.936-67.584 22.528 0 45.056 5.632 61.952 16.896l5.632 2.56-19.456 33.792zM368.64 707.584l250.368-250.368-45.056-3.072-222.208 222.208c-16.896 16.896-41.984 16.896-58.88 2.56L110.08 496.64c-16.896-16.896-16.896-41.984 0-56.32l252.928-252.928c-5.12-12.288-8.704-25.6-10.24-39.424L81.92 423.424c-25.6 25.088-25.6 70.144 0 95.744l191.488 188.416c24.576 25.088 69.632 25.088 95.232 0zM706.048 226.304l-16.384-16.384-31.232-31.232-23.04-23.04c-2.56 14.848-7.168 29.184-13.824 41.984l0.512 0.512 28.16 28.16 8.704 8.704c7.68-5.632 30.208-11.264 47.104-8.704zM186.88 506.88l-24.064-24.064 79.36-79.36 24.064 24.064L186.88 506.88z m85.504-84.48l-24.064-24.064L327.68 318.976l24.064 24.064-79.36 79.36z m85.504-88.576l-24.064-24.064 68.608-68.608c8.704 7.68 18.432 13.824 28.672 18.944l-73.216 73.728zM416.256 572.416c-45.056 53.248-123.904 61.952-180.224 16.896-2.56-2.56-5.632-5.632-5.632-11.264s0-8.192 2.56-11.264 5.632-5.632 11.264-5.632c2.56 0 8.192 0 11.264 2.56 41.984 33.792 101.376 28.16 137.728-13.824 2.56-2.56 8.192-5.632 11.264-5.632s5.632 0 8.192 2.56 5.632 5.632 5.632 11.264c3.584 6.144 1.024 8.704-2.048 14.336zM320.512 527.36c-13.824 0-25.088-2.56-36.352-11.264-5.632-5.632-8.192-13.824-2.56-22.528 5.632-5.632 13.824-8.192 22.528-2.56s19.456 5.632 28.16-2.56c2.56-2.56 8.192-5.632 11.264-5.632h2.56c2.56 0 5.632 2.56 8.192 2.56 2.56 2.56 5.632 5.632 5.632 11.264s0 8.192-2.56 11.264c-11.264 13.824-22.528 19.456-36.864 19.456zM326.144 572.416c-22.528 2.56-47.616-5.632-64.512-19.456-2.56-2.56-5.632-5.632-5.632-11.264s0-8.192 2.56-11.264 5.632-5.632 11.264-5.632 8.192 0 11.264 2.56h2.56c22.528 19.456 58.88 13.824 75.776-8.192 2.56-2.56 5.632-5.632 11.264-5.632h2.56c2.56 0 5.632 0 8.192 2.56 5.632 5.632 8.192 16.896 2.56 22.528-12.8 19.968-35.328 31.232-57.856 33.792zM494.592 259.072c-70.144 0-126.464-56.832-126.464-126.464 0-70.144 56.832-126.464 126.464-126.464 70.144 0 126.464 56.832 126.464 126.464s-56.32 126.464-126.464 126.464z m0-236.032c-60.416 0-109.056 49.152-109.056 109.056 0 60.416 49.152 109.056 109.056 109.056s109.056-49.152 109.056-109.056-48.64-109.056-109.056-109.056zM549.888 123.904c-13.312 15.36-32.768 26.112-55.296 26.112-21.504 0-41.984-9.216-55.296-24.576-1.024-2.56 1.024-8.192 5.632-12.288 5.632-3.584 11.264-5.632 12.288-2.56 9.216 11.264 23.552 17.408 37.888 17.408 13.312 0 27.136-5.632 36.864-15.36 1.024-2.56 7.168-1.024 12.288 2.56 4.608 2.048 6.656 5.632 5.632 8.704zM528.384 96.768c-8.192 9.216-19.968 15.36-33.792 15.36-13.312 0-25.6-5.632-33.792-14.848-0.512-1.536 0.512-4.608 3.584-7.68 3.584-2.56 6.656-3.584 7.68-1.536 5.632 6.656 13.824 11.264 23.552 11.264 8.192 0 16.384-3.584 22.528-9.216 0.512-1.536 4.096-0.512 7.68 1.536 1.536 1.536 3.072 3.584 2.56 5.12zM578.56 145.408c0 1.536-1.536 1.536 0 0-1.536 1.536-1.536 1.536 0 0-1.536 1.536-1.536 1.536 0 0-21.504 24.576-50.176 38.912-83.968 38.912-32.768 0-62.464-15.36-82.944-37.888-2.56-2.56 0-8.192 5.632-12.288s11.264-5.632 13.312-2.56c16.384 17.408 37.888 29.696 63.488 29.696s48.64-11.264 65.024-29.696c2.56-1.024 8.192 0 12.288 3.584 4.096 3.584 7.168 7.68 7.168 10.24zM494.592 68.096m-13.312 0a13.312 13.312 0 1 1 26.624 0 13.312 13.312 0 1 1-26.624 0Z"  horiz-adv-x="1024" />

    
    <glyph glyph-name="UPS-comm" unicode="&#58977;" d="M761.344 776.704h-506.88c-13.312 0-24.064-11.264-24.064-25.088v-691.712c0-13.824 10.752-25.088 24.064-25.088h364.544c-4.608 3.072-8.704 6.144-13.312 9.728-10.752 8.704-20.48 17.92-29.696 28.672H267.264V738.304h481.28V419.84c12.8-0.512 25.088-2.56 36.864-5.12V751.616c0 13.824-10.752 25.088-24.064 25.088zM668.16-1.536H348.16l8.192 36.352 2.048 9.728h247.296c4.096-3.584 8.704-6.656 13.312-9.728 13.824-9.216 29.184-17.408 45.056-23.04l4.096-13.312zM666.624 659.456H349.696c-13.312 0-24.064-10.752-24.064-24.064v-178.176c0-13.312 10.752-24.064 24.064-24.064h316.928c13.312 0 24.064 10.752 24.064 24.064V635.392c0 13.312-11.264 24.064-24.064 24.064zM356.352 465.92V628.736h156.16L453.12 465.92H356.352z m132.096 0L547.84 628.736h66.048l-61.44-162.816H488.448z m171.52 0h-72.704l59.392 162.816h13.312V465.92zM289.28 240.64H286.72c-5.632 0-10.24 4.608-10.24 10.24v54.784c0 5.632 4.608 10.24 10.24 10.24h2.56c5.632 0 10.24-4.608 10.24-10.24V250.88c0-5.632-4.608-10.24-10.24-10.24zM614.912 380.928c-13.312-9.728-25.6-20.48-36.352-32.768H371.2c-9.216 0-16.384 7.168-16.384 16.384 0 4.608 2.048 8.704 4.608 11.776 3.072 3.072 7.168 4.608 11.776 4.608h243.712zM540.672 285.184c-4.096-10.752-7.168-21.504-9.728-32.768H371.2c-9.216 0-16.384 7.168-16.384 16.384 0 4.608 2.048 8.704 4.608 11.776 3.072 3.072 7.168 4.608 11.776 4.608h169.472zM532.992 156.16H371.2c-9.216 0-16.384 7.168-16.384 16.384 0 4.608 2.048 8.704 4.608 11.776 3.072 3.072 7.168 4.608 11.776 4.608H527.36c1.024-11.264 3.072-22.016 5.632-32.768zM743.936 390.656c-100.352 0-181.248-81.408-181.248-181.248 0-100.352 81.408-181.248 181.248-181.248 100.352 0 181.248 81.408 181.248 181.248s-80.896 181.248-181.248 181.248z m0-337.92c-86.528 0-156.16 70.144-156.16 156.16 0 86.528 70.144 156.16 156.16 156.16s156.16-70.144 156.16-156.16-69.632-156.16-156.16-156.16zM823.296 197.12c-18.944 22.016-47.104 36.864-79.36 36.864-30.72 0-60.416-13.312-79.36-35.328-1.536-4.096 1.536-11.776 7.68-17.408 7.68-5.632 15.872-7.68 17.408-4.096 13.312 15.872 33.28 25.088 54.272 25.088 18.944 0 38.912-7.68 52.736-22.016 1.536-4.096 10.24-1.536 17.408 4.096 7.68 3.072 10.752 8.704 9.216 12.8zM792.576 158.208c-11.776 12.8-28.16 22.016-48.64 22.016-18.944 0-36.352-7.68-48.64-21.504-1.024-2.048 1.024-6.656 5.12-10.752 5.12-4.096 9.216-5.12 10.752-2.048 7.68 9.216 19.968 15.872 33.28 15.872 11.776 0 23.552-5.12 31.744-12.8 1.024-2.048 6.144-1.024 10.752 2.048 4.096 2.048 6.656 5.12 5.632 7.168zM864.256 228.352c0 2.048-2.048 2.048 0 0-2.048 2.048-2.048 2.048 0 0-2.048 2.048-2.048 2.048 0 0-30.72 35.328-72.192 55.808-120.32 55.808-47.104 0-89.6-22.016-118.784-54.272-4.096-4.096 0-11.776 7.68-17.408s15.872-7.68 18.944-4.096c23.552 25.088 54.272 42.496 91.136 42.496 36.864 0 70.144-15.872 93.184-42.496 4.096-1.536 11.776 0 17.408 5.632 6.656 4.608 10.752 10.752 10.752 14.336zM743.936 117.248m-18.944 0a18.944 18.944 0 1 1 37.888 0 18.944 18.944 0 1 1-37.888 0Z"  horiz-adv-x="1024" />

    
    <glyph glyph-name="select-all" unicode="&#59420;" d="M330.59375 722.34375L213.734375 605.0625 160.15625 658.640625a25.49330392 25.49330392 0 0 1-36.28125 0 26.25669663 26.25669663 0 0 1-7.59375-18.140625c0-6.75 2.53125-13.078125 7.59375-18.140625l70.03125-70.03125c5.0625-5.0625 11.390625-7.59375 18.984375-7.59375h1.265625c7.59375 0.421875 14.34375 2.953125 18.5625 7.59375l133.3125 133.3125a25.49330392 25.49330392 0 0 1 0 36.28125c-8.859375 9.703125-25.734375 9.703125-35.4375 0.421875z m544.21875-56.109375H502.71875c-8.859375 0-16.875-3.375-22.78125-9.28125a31.27901798 31.27901798 0 0 1-9.703125-22.78125c0-17.71875 14.34375-32.484375 32.484375-32.484375H874.8125c17.71875 0 32.484375 14.34375 32.484375 32.484375 0 17.296875-14.765625 32.0625-32.484375 32.0625zM124.296875 369.234375l70.03125-70.03125c5.0625-5.0625 12.65625-8.015625 19.40625-7.59375h1.265625c7.171875 0 13.921875 2.953125 18.5625 7.59375l133.3125 133.3125c4.640625 4.640625 7.59375 11.390625 7.59375 18.140625 0 6.75-2.53125 13.078125-7.59375 18.140625-9.28125 9.28125-26.578125 9.28125-35.859375 0l-116.859375-116.859375-53.578125 53.578125c-4.640625 4.640625-10.96875 7.59375-18.140625 7.59375s-13.078125-2.53125-18.140625-7.59375c-4.640625-4.640625-7.59375-11.390625-7.59375-18.140625s2.53125-13.078125 7.59375-18.140625zM874.8125 405.09375H502.71875c-8.859375 0-16.875-3.375-22.78125-9.28125a31.27901798 31.27901798 0 0 1-9.703125-22.78125c0-17.71875 14.34375-32.484375 32.484375-32.484375H874.8125c17.71875 0 32.484375 14.34375 32.484375 32.484375 0 17.71875-14.765625 32.0625-32.484375 32.0625zM330.59375 215.671875l-116.859375-116.859375-53.578125 53.578125a25.49330392 25.49330392 0 0 1-36.28125 0 26.25669663 26.25669663 0 0 1-7.59375-18.140625c0-6.75 2.53125-13.078125 7.59375-18.140625l70.03125-70.03125c5.0625-5.0625 12.234375-7.59375 18.984375-7.59375h2.109375c7.171875 0 13.078125 2.53125 18.140625 7.59375l133.3125 133.3125c4.640625 4.640625 7.59375 11.390625 7.59375 18.140625s-2.53125 13.078125-7.59375 18.140625c-8.859375 8.859375-26.578125 8.859375-35.859375 0z m544.21875-71.296875H502.71875c-8.859375 0-16.875-3.375-22.78125-9.28125s-9.28125-14.34375-9.28125-22.78125c0-17.71875 14.34375-32.484375 32.484375-32.484375H874.8125c11.390625 0 22.359375 6.328125 28.265625 16.03125a32.00223202 32.00223202 0 0 1 0 32.484375 33.6696427 33.6696427 0 0 1-28.265625 16.03125z"  horiz-adv-x="1024" />

    
    <glyph glyph-name="select" unicode="&#59421;" d="M1016.814035 597.782456l-323.368421-323.368421-147.312281 147.312281c-17.964912 17.964912-43.115789 14.37193-61.080701 0-14.37193-17.964912-14.37193-43.115789 0-61.080702l176.05614-172.463158c3.592982-7.185965 10.778947-14.37193 21.557895-14.37193 14.37193-7.185965 35.929825-3.592982 46.708772 7.185965v3.592983l352.11228 352.11228c17.964912 17.964912 17.964912 46.708772 0 64.673685s-46.708772 14.37193-64.673684-3.592983z"  horiz-adv-x="1509" />

    
    <glyph glyph-name="Control" unicode="&#58972;" d="M398.848 481.28c0 29.696-18.944 54.272-45.056 64V632.832h-45.056v-87.552c-26.112-9.216-45.056-34.304-45.056-64s18.944-54.272 45.056-64v-282.112h45.056V417.28c26.112 9.216 45.056 34.304 45.056 64z m135.68-135.168v286.72h-45.056v-286.72c-26.112-9.216-45.056-34.304-45.056-64s18.944-54.272 45.056-64v-82.944h45.056v82.944c26.112 9.216 45.056 34.304 45.056 64 0.512 29.696-18.432 54.784-45.056 64z m180.736 199.168V632.832h-45.056v-87.552c-26.112-9.216-45.056-34.304-45.056-64s18.944-54.272 45.056-64v-281.6h45.056v281.6c26.112 9.216 45.056 34.304 45.056 64 0.512 29.696-18.432 54.272-45.056 64zM748.544-23.552H285.696c-102.912 0-186.368 83.456-186.368 186.368V626.176c0 102.912 83.456 186.368 186.368 186.368h463.36c102.912 0 186.368-83.456 186.368-186.368v-463.36c0-102.912-83.968-186.368-186.88-186.368zM285.696 761.344c-74.752 0-135.168-60.416-135.168-135.168v-463.36c0-74.752 60.416-135.168 135.168-135.168h462.848c74.752 0 135.68 60.416 135.68 135.168V626.176c0 74.752-60.416 135.168-135.168 135.168H285.696z"  horiz-adv-x="1024" />

    
    <glyph glyph-name="cctv-motion" unicode="&#58952;" d="M654.336 358.912c-9.216 0-17.92 2.56-26.112 7.168-16.384 9.728-26.112 26.112-26.112 45.056V484.864c0 18.944 9.728 35.84 26.112 45.056 16.384 9.728 35.84 9.728 52.224 0l63.488-36.352c16.384-9.728 26.112-26.112 26.112-45.056s-9.728-35.84-26.112-45.056l-63.488-36.352c-8.192-5.632-16.896-8.192-26.112-8.192z m0 139.264c-3.072 0-5.632-1.024-6.656-2.048-2.048-1.024-6.656-4.096-6.656-10.752v-73.216c0-6.656 4.096-9.728 6.656-10.752 2.048-1.024 7.168-3.072 12.8 0l63.488 36.352c5.632 3.072 6.656 9.216 6.656 10.752 0 2.56-0.512 7.68-6.656 10.752L660.48 496.128c-1.536 1.536-4.096 2.048-6.144 2.048zM738.304 192.512H286.208c-68.096 0-122.88 55.808-122.88 122.88V570.368c0 68.096 54.784 122.88 122.88 122.88h452.096c68.096 0 122.88-54.784 122.88-122.88v-255.488c0-67.072-54.784-122.368-122.88-122.368zM286.208 651.264c-44.544 0-80.896-35.84-80.896-80.896v-255.488c0-44.544 35.84-80.896 80.896-80.896h452.096c44.544 0 80.896 35.84 80.896 80.896V570.368c0 44.544-35.84 80.896-80.896 80.896H286.208zM404.48 58.368c-11.776 0-20.992 9.216-20.992 20.992V107.52c0 11.776 9.216 20.992 20.992 20.992s20.992-9.216 20.992-20.992v-28.16c0-11.776-9.216-20.992-20.992-20.992z m-93.184 14.336H185.344c-11.776 0-22.016 9.216-22.016 22.016 0 11.776 10.24 22.016 22.016 22.016h125.952c11.776 0 22.016-10.24 22.016-22.016 0-12.8-10.24-22.016-22.016-22.016z m528.896 0H494.592c-11.776 0-22.016 10.24-22.016 22.016s10.24 22.016 22.016 22.016h345.6c11.776 0 22.016-10.24 22.016-22.016-1.024-12.8-10.752-22.016-22.016-22.016zM378.368 567.296h-40.96v-271.872h52.736V567.296zM299.52 567.296h-40.448v-271.872h52.736V567.296zM467.456 567.296h-40.448v-271.872h52.736V567.296zM522.752 567.296h40.448v-58.88h-40.448zM522.752 464.384h40.448v-58.88h-40.448zM563.712 361.472h-40.96v-66.048h40.96v66.048z"  horiz-adv-x="1025" />

    
    <glyph glyph-name="Barionet-comm" unicode="&#58953;" d="M203.776 92.16l-69.632-65.024v324.096l69.632-17.408V92.16zM135.168 14.848h-4.096c-4.096 4.096-8.704 8.704-8.704 12.8v324.096c0 4.096 4.096 8.704 4.096 12.8 4.096 4.096 8.704 4.096 12.8 4.096l69.632-17.408c8.704 0 12.8-8.704 12.8-12.8V97.28c0-4.096 0-8.704-4.096-12.8l-69.632-65.024c-8.192-4.608-8.192-4.608-12.8-4.608z m12.8 314.88v-267.776l38.4 34.304v220.672c4.608 4.096-38.4 12.8-38.4 12.8z m574.976-138.24h-8.704L234.496 463.872c-12.8 8.704-21.504 17.408-25.6 34.304-4.096 12.8 0 30.208 4.096 43.008l95.232 167.936c8.704 12.8 17.408 21.504 34.304 25.6 12.8 4.096 30.208 4.096 43.008-4.096l522.24-298.496c4.096-4.096 8.704-4.096 8.704-8.704 0-4.608 0-8.704-4.096-12.8L734.72 194.56c-3.584-3.072-7.68-3.072-11.776-3.072zM359.936 697.856h-8.704c-8.704 0-12.8-8.704-17.408-12.8L247.808 532.992c-4.096-4.096-4.096-12.8-4.096-21.504 0-4.096 4.096-12.8 8.704-12.8l462.336-259.072 146.944 181.248L368.64 692.736c-4.608 0.512-8.704 5.12-8.704 5.12zM674.816 161.792c-12.8 0-25.6 4.096-34.304 8.704L251.904 386.56c-8.704 4.096-17.408 17.408-21.504 25.6-4.096 12.8 8.704 34.304 12.8 47.104l8.704 8.704c4.096 8.704 12.8 8.704 21.504 17.408l458.24-254.976c4.096-12.8 8.704-12.8 8.704-17.408v-8.704c-8.704-17.408-30.208-34.304-47.104-38.4-9.728-4.096-14.336-4.096-18.432-4.096zM277.504 446.464l-4.096-4.096c0-4.096-12.8-17.408-8.704-21.504 4.096-4.096 4.096-8.704 8.704-8.704l388.608-216.064c21.504-12.8 34.304 4.096 47.104 12.8L277.504 446.464z m73.728 160.256c0-17.408 12.8-30.208 30.208-30.208s30.208 12.8 30.208 30.208-12.8 30.208-30.208 30.208-30.208-12.8-30.208-30.208zM778.752 161.792c-4.096 0-8.704 0-8.704 4.096-8.704 4.096-8.704 17.408 0 21.504l146.944 172.544c4.096 8.704 17.408 8.704 21.504 0 8.704-4.096 8.704-17.408 0-21.504l-146.944-172.544c-4.608 0-8.704-4.096-12.8-4.096z m-453.632 0H190.976c-17.408 0-30.208 12.8-30.208 30.208s12.8 30.208 30.208 30.208h116.736L363.52 316.928c8.704 12.8 25.6 21.504 43.008 12.8 12.8-8.704 21.504-25.6 12.8-43.008l-68.096-108.032c-8.192-8.192-17.92-16.896-26.112-16.896zM477.696 61.952a34.304 34.304 0 1 1 68.608 0 34.304 34.304 0 0 1-68.608 0zM614.4 61.952a34.304 34.304 0 0 1 68.608 0 34.304 34.304 0 0 1-68.608 0zM340.992 61.952a34.304 34.304 0 1 1 34.304 34.304c-18.944 0-33.792-15.36-34.304-34.304z"  horiz-adv-x="1024" />

    
    <glyph glyph-name="cctvsignal" unicode="&#58954;" d="M484.352 317.44c-12.288 0-23.552 3.584-34.304 9.216-21.504 12.8-34.304 34.304-34.304 59.392v97.28c0 25.088 12.8 47.104 34.304 59.392 21.504 12.8 47.104 12.8 69.12 0l83.968-48.128c21.504-12.8 34.304-34.304 34.304-59.392s-12.8-47.104-34.304-59.392l-83.968-48.128c-11.264-7.168-23.04-10.24-34.816-10.24z m0 183.808c-4.096 0-7.68-1.536-8.704-2.56-2.56-1.536-8.704-5.632-8.704-14.336v-96.768c0-8.704 5.632-12.8 8.704-14.336 2.56-1.536 9.216-4.096 16.896 0l83.968 48.128c7.68 4.096 8.704 12.288 8.704 14.336 0 3.584-0.512 10.24-8.704 14.336l-83.968 48.64c-2.56 1.536-5.632 2.56-8.192 2.56zM738.304 192.512H286.208c-68.096 0-122.88 55.808-122.88 122.88V570.368c0 68.096 54.784 122.88 122.88 122.88h452.096c68.096 0 122.88-54.784 122.88-122.88v-255.488c0-67.072-54.784-122.368-122.88-122.368zM286.208 651.264c-44.544 0-80.896-35.84-80.896-80.896v-255.488c0-44.544 35.84-80.896 80.896-80.896h452.096c44.544 0 80.896 35.84 80.896 80.896V570.368c0 44.544-35.84 80.896-80.896 80.896H286.208zM404.48 58.368c-11.776 0-20.992 9.216-20.992 20.992V107.52c0 11.776 9.216 20.992 20.992 20.992s20.992-9.216 20.992-20.992v-28.16c0-11.776-9.216-20.992-20.992-20.992z m-93.184 14.336H185.344c-11.776 0-22.016 9.216-22.016 22.016 0 11.776 10.24 22.016 22.016 22.016h125.952c11.776 0 22.016-10.24 22.016-22.016 0-12.8-10.24-22.016-22.016-22.016z m528.896 0H494.592c-11.776 0-22.016 10.24-22.016 22.016s10.24 22.016 22.016 22.016h345.6c11.776 0 22.016-10.24 22.016-22.016-1.024-12.8-10.752-22.016-22.016-22.016z"  horiz-adv-x="1025" />

    
    <glyph glyph-name="DVR-RAID" unicode="&#58955;" d="M722.944 500.736l-79.872 94.208c-5.12 6.144-19.968 13.312-28.16 13.312H351.744c-35.328 0-64-28.672-64-64v-320c0-35.328 28.672-64 64-64h320c35.328 0 64 28.672 64 64v240.64c0.512 9.728-6.144 27.648-12.8 35.84z m45.056-35.84v-240.64c0-53.248-43.008-95.744-96.256-95.744H352.256c-53.248 0-96.256 43.008-96.256 96.256V543.744C256 596.992 299.008 640 351.744 640h263.168c17.92 0 41.472-10.752 52.736-24.576L747.52 521.216c11.264-13.824 20.48-38.912 20.48-56.32zM608.256 159.744v15.872c0 8.704-7.168 15.872-15.872 15.872H432.128c-8.704 0-15.872-7.168-15.872-15.872v-15.872h192zM384 176.128c0 26.624 21.504 48.128 48.128 48.128h159.744c26.624 0 48.128-21.504 48.128-48.128v-15.36H384v15.36z m31.744 415.744c0-8.704 7.168-15.872 15.872-15.872h159.744c8.704 0 15.872 7.168 15.872 15.872v15.872H415.744v-15.872zM384 608.256h256v-15.872c0-26.624-21.504-48.128-48.128-48.128H432.128c-26.624 0-48.128 21.504-48.128 48.128v15.872z m128-288.256c35.328 0 64 28.672 64 64s-28.672 64-64 64-64-28.672-64-64 28.672-64 64-64z m0-32.256c-53.248 0-96.256 43.008-96.256 96.256s43.008 96.256 96.256 96.256 96.256-43.008 96.256-96.256-43.008-96.256-96.256-96.256z"  horiz-adv-x="1024" />

    
    <glyph glyph-name="ICOM-silent" unicode="&#58960;" d="M735.744 765.952H288.256c-47.616 0-88.576-34.816-96.256-81.92l-21.504-129.536c-3.072-18.432-4.096-37.376-2.56-56.32l29.184-405.504c3.584-51.2 46.08-90.624 97.28-90.624h436.224c51.2 0 93.696 39.424 97.28 90.624l29.184 405.504c1.536 18.944 0.512 37.888-2.56 56.32l-21.504 129.536c-8.704 47.104-49.152 81.92-97.28 81.92zM288.256 712.704h448c21.504 0 40.448-15.872 44.032-37.376l21.504-129.536c2.56-14.336 3.072-29.184 2.048-44.032l-29.184-405.504c-1.536-23.04-20.992-41.472-44.544-41.472H293.888c-23.04 0-42.496 17.92-44.544 40.96L220.16 501.248c-1.024 14.848-0.512 29.184 2.048 44.032l21.504 129.536c4.096 22.016 22.528 37.888 44.544 37.888zM654.336 517.12H369.664c-34.304 0-61.952-27.648-61.952-61.952v-284.16c0-34.304 27.648-61.952 61.952-61.952h284.16c34.304 0 61.952 27.648 61.952 61.952V455.168c0.512 34.304-27.136 61.952-61.44 61.952zM369.664 463.872h284.16c5.12 0 8.704-4.096 8.704-8.704v-284.16c0-5.12-4.096-8.704-8.704-8.704H369.664c-5.12 0-8.704 4.096-8.704 8.704V455.168c0 4.608 4.096 8.704 8.704 8.704zM537.088 583.168c13.824 0 25.088 11.264 25.088 25.088s-11.264 25.088-25.088 25.088-25.088-11.264-25.088-25.088c0-14.336 11.264-25.088 25.088-25.088z m70.656 0c13.824 0 25.088 11.264 25.088 25.088s-11.264 25.088-25.088 25.088-25.088-11.264-25.088-25.088c0.512-14.336 11.776-25.088 25.088-25.088z m71.168 0c13.824 0 25.088 11.264 25.088 25.088s-11.264 25.088-25.088 25.088-25.088-11.264-25.088-25.088c0.512-14.336 11.264-25.088 25.088-25.088zM394.752 586.24l-46.08-38.912c-4.096-3.072-5.12-2.048-3.072 2.56l9.216 20.48c2.048 4.608 0.512 11.264-3.072 14.336l-25.088 22.528c-3.584 3.072-3.584 8.704-0.512 11.776l0.512 0.512 49.664 48.128c3.584 3.584 5.12 2.56 3.584-2.048l-10.752-32.768c-1.536-4.608 0-11.264 4.096-14.848l22.016-19.968c3.584-3.072 3.584-8.704-0.512-11.776zM593.408 313.344l31.232-44.544c3.584-5.12 2.048-12.288-3.072-15.872-5.12-3.584-12.288-2.048-15.872 2.56l-26.112 37.376-28.16-40.96c-3.584-5.12-10.752-6.656-15.872-3.072s-6.656 10.752-3.072 15.872v0.512l32.768 48.128-32.768 46.592c-3.584 5.12-2.048 12.288 3.072 15.872 5.12 3.584 12.288 2.048 15.872-2.56l28.16-39.936 26.624 38.912c3.584 5.12 10.752 6.656 15.872 3.072s6.656-10.752 3.072-15.872v-0.512l-31.744-45.568z m-165.376 52.736l57.856 60.416c7.168 7.168 19.456 2.56 19.456-7.68v-211.456c0-10.24-12.288-15.36-19.456-7.68L424.96 263.168h-30.72c-7.168 0-12.8 5.632-12.8 12.8V353.28c0 7.168 5.632 12.8 12.8 12.8h33.792z m13.312-19.456c-2.048-2.048-5.12-3.584-8.192-3.584H404.48v-57.856h25.6c3.072 0 6.144-1.024 8.192-3.584l44.544-46.592V390.144l-41.472-43.52z"  horiz-adv-x="1024" />

    
    <glyph glyph-name="UPS-Charger" unicode="&#58961;" d="M761.344 776.704h-506.88c-13.312 0-24.064-11.264-24.064-25.088v-691.712c0-13.824 10.752-25.088 24.064-25.088h364.544c-4.608 3.072-8.704 6.144-13.312 9.728-10.752 8.704-20.48 17.92-29.696 28.672H267.264V738.304h481.28V419.84c12.8-0.512 25.088-2.56 36.864-5.12V751.616c0 13.824-10.752 25.088-24.064 25.088zM668.16-1.536H348.16l8.192 36.352 2.048 9.728h247.296c4.096-3.584 8.704-6.656 13.312-9.728 13.824-9.216 29.184-17.408 45.056-23.04l4.096-13.312zM666.624 659.456H349.696c-13.312 0-24.064-10.752-24.064-24.064v-178.176c0-13.312 10.752-24.064 24.064-24.064h316.928c13.312 0 24.064 10.752 24.064 24.064V635.392c0 13.312-11.264 24.064-24.064 24.064zM356.352 465.92V628.736h156.16L453.12 465.92H356.352z m132.096 0L547.84 628.736h66.048l-61.44-162.816H488.448z m171.52 0h-72.704l59.392 162.816h13.312V465.92zM289.28 240.64H286.72c-5.632 0-10.24 4.608-10.24 10.24v54.784c0 5.632 4.608 10.24 10.24 10.24h2.56c5.632 0 10.24-4.608 10.24-10.24V250.88c0-5.632-4.608-10.24-10.24-10.24zM614.912 380.928c-13.312-9.728-25.6-20.48-36.352-32.768H371.2c-9.216 0-16.384 7.168-16.384 16.384 0 4.608 2.048 8.704 4.608 11.776 3.072 3.072 7.168 4.608 11.776 4.608h243.712zM540.672 285.184c-4.096-10.752-7.168-21.504-9.728-32.768H371.2c-9.216 0-16.384 7.168-16.384 16.384 0 4.608 2.048 8.704 4.608 11.776 3.072 3.072 7.168 4.608 11.776 4.608h169.472zM532.992 156.16H371.2c-9.216 0-16.384 7.168-16.384 16.384 0 4.608 2.048 8.704 4.608 11.776 3.072 3.072 7.168 4.608 11.776 4.608H527.36c1.024-11.264 3.072-22.016 5.632-32.768zM743.936 390.656c-100.352 0-181.248-81.408-181.248-181.248 0-100.352 81.408-181.248 181.248-181.248 100.352 0 181.248 81.408 181.248 181.248s-80.896 181.248-181.248 181.248z m0-337.92c-86.528 0-156.16 70.144-156.16 156.16 0 86.528 70.144 156.16 156.16 156.16s156.16-70.144 156.16-156.16-69.632-156.16-156.16-156.16zM743.424 326.144l83.456-18.432c7.68-1.536 10.752-9.728 6.144-15.36L770.56 215.04c-4.096-5.12-2.048-11.776 4.096-14.848l35.84-15.872c7.68-3.072 8.192-12.8 1.536-16.896l-119.296-74.752c-4.096-2.56-8.704 1.536-6.144 5.12l36.352 51.712c3.584 5.632 1.024 12.8-5.632 14.848l-56.832 16.384c-6.656 2.048-9.728 8.704-6.144 14.336l76.8 125.952c2.56 4.096 7.168 6.144 12.288 5.12z"  horiz-adv-x="1024" />

    
    <glyph glyph-name="DVR-comm" unicode="&#58962;" d="M316.416 720.896h-41.472C225.28 720.896 199.68 683.52 184.832 629.76L92.16 177.664v-3.584c0-51.2 40.448-93.184 90.112-93.184H824.32c50.176 0 90.112 41.984 90.112 93.184v3.584L829.44 629.76c-12.288 58.88-41.472 91.648-90.112 91.648h-91.648M229.376 627.712c10.752 28.672 20.48 46.592 45.568 46.592h463.872c25.088 0 36.864-17.408 44.544-46.592 0-1.024 0.512-1.536 1.024-3.584l62.976-336.384H159.744M824.32 127.488H182.272c-24.576 0-44.544 19.968-45.568 45.056l16.384 68.608h700.416l16.384-68.608c-1.024-25.088-20.992-45.056-45.568-45.056zM610.816 162.816h28.672c10.752 0 19.456 8.704 19.456 19.968s-8.704 19.968-19.456 19.968h-28.672c-10.752 0-19.456-8.704-19.456-19.968s9.216-19.968 19.456-19.968zM711.168 172.032h14.848c5.632 0 10.752 5.12 10.752 10.752 0 6.144-4.608 11.264-10.752 11.264h-14.848c-5.632 0-10.752-5.12-10.752-11.264 0.512-5.632 5.12-10.752 10.752-10.752zM497.152 162.816h28.672c10.752 0 19.456 8.704 19.456 19.968s-8.704 19.968-19.456 19.968h-28.672c-10.752 0-19.456-8.704-19.456-19.968s9.216-19.968 19.456-19.968zM629.248 499.2C599.04 534.016 554.496 558.08 503.296 558.08c-48.64 0-95.744-21.504-125.952-55.808-2.56-6.144 2.56-18.432 12.288-27.648 12.288-8.704 25.088-12.288 27.648-6.144 21.504 25.088 53.248 39.936 86.016 39.936 30.208 0 61.952-12.288 83.456-34.816 2.56-6.144 15.872-2.56 27.648 6.144 12.288 3.584 17.408 12.8 14.848 19.456zM580.608 437.248c-18.432 20.48-45.056 35.328-77.312 35.328-30.208 0-57.856-12.288-77.312-33.792-1.536-3.584 1.536-10.752 8.192-16.896 8.192-6.144 14.848-8.192 16.896-3.584 12.288 14.848 31.744 25.088 53.248 25.088 18.432 0 37.376-8.192 50.688-20.48 1.536-3.584 9.728-1.536 16.896 3.584 6.656 2.56 10.24 7.168 8.704 10.752zM694.272 548.352c0 3.584-2.56 3.584 0 0-2.56 3.584-2.56 3.584 0 0-2.56 3.584-2.56 3.584 0 0C645.12 604.16 579.584 636.928 503.296 636.928c-74.752 0-142.336-34.816-188.416-86.016-6.144-6.144 0-18.432 12.288-27.648s25.088-12.288 30.208-6.144c37.376 39.936 86.016 67.584 144.896 67.584 58.368 0 111.104-25.088 148.48-67.584 6.144-2.56 18.432 0 27.648 8.704 9.728 7.168 15.872 16.896 15.872 22.528zM503.296 371.712m-30.208 0a30.208 30.208 0 1 1 60.416 0 30.208 30.208 0 1 1-60.416 0Z"  horiz-adv-x="1024" />

    
    <glyph glyph-name="ICOM-AC" unicode="&#58963;" d="M735.744 765.952H288.256c-47.616 0-88.576-34.816-96.256-81.92l-21.504-129.536c-3.072-18.432-4.096-37.376-2.56-56.32l29.184-405.504c3.584-51.2 46.08-90.624 97.28-90.624h436.224c51.2 0 93.696 39.424 97.28 90.624l29.184 405.504c1.536 18.944 0.512 37.888-2.56 56.32l-21.504 129.536c-8.704 47.104-49.152 81.92-97.28 81.92zM288.256 712.704h448c21.504 0 40.448-15.872 44.032-37.376l21.504-129.536c2.56-14.336 3.072-29.184 2.048-44.032l-29.184-405.504c-1.536-23.04-20.992-41.472-44.544-41.472H293.888c-23.04 0-42.496 17.92-44.544 40.96L220.16 501.248c-1.024 14.848-0.512 29.184 2.048 44.032l21.504 129.536c4.096 22.016 22.528 37.888 44.544 37.888zM654.336 517.12H369.664c-34.304 0-61.952-27.648-61.952-61.952v-284.16c0-34.304 27.648-61.952 61.952-61.952h284.16c34.304 0 61.952 27.648 61.952 61.952V455.168c0.512 34.304-27.136 61.952-61.44 61.952zM369.664 463.872h284.16c5.12 0 8.704-4.096 8.704-8.704v-284.16c0-5.12-4.096-8.704-8.704-8.704H369.664c-5.12 0-8.704 4.096-8.704 8.704V455.168c0 4.608 4.096 8.704 8.704 8.704zM537.088 583.168c13.824 0 25.088 11.264 25.088 25.088s-11.264 25.088-25.088 25.088-25.088-11.264-25.088-25.088c0-14.336 11.264-25.088 25.088-25.088z m70.656 0c13.824 0 25.088 11.264 25.088 25.088s-11.264 25.088-25.088 25.088-25.088-11.264-25.088-25.088c0.512-14.336 11.776-25.088 25.088-25.088z m71.168 0c13.824 0 25.088 11.264 25.088 25.088s-11.264 25.088-25.088 25.088-25.088-11.264-25.088-25.088c0.512-14.336 11.264-25.088 25.088-25.088zM394.752 586.24l-46.08-38.912c-4.096-3.072-5.12-2.048-3.072 2.56l9.216 20.48c2.048 4.608 0.512 11.264-3.072 14.336l-25.088 22.528c-3.584 3.072-3.584 8.704-0.512 11.776l0.512 0.512 49.664 48.128c3.584 3.584 5.12 2.56 3.584-2.048l-10.752-32.768c-1.536-4.608 0-11.264 4.096-14.848l22.016-19.968c3.584-3.072 3.584-8.704-0.512-11.776zM549.888 257.024c-30.72 0.512-52.736 20.992-53.248 49.664 1.536 23.04-11.776 32.768-12.288 33.28-11.776 6.656-22.528 8.704-30.72 4.608-12.288-5.632-17.92-24.064-18.944-30.72-1.024-6.144-7.168-10.24-13.312-9.728-6.144 0.512-10.24 7.168-9.728 13.312 0 1.536 6.144 35.328 31.744 47.616 15.36 7.168 32.768 5.12 51.712-5.632 1.536-1.024 26.624-17.408 23.552-53.76 0.512-15.872 12.8-26.112 32.256-26.112 14.848 0 25.6 5.12 29.696 28.672 1.024 6.144 7.168 10.24 13.312 9.216 6.144-1.024 10.24-7.168 9.216-13.312v-0.512c-6.144-31.744-24.064-47.616-52.736-47.616l-0.512 1.024zM360.96 326.656H399.36v-18.944h-38.4zM624.64 326.656h38.4v-18.944H624.64z"  horiz-adv-x="1024" />

    
    <glyph glyph-name="ICOM-battery" unicode="&#58964;" d="M735.744 765.952H288.256c-47.616 0-88.576-34.816-96.256-81.92l-21.504-129.536c-3.072-18.432-4.096-37.376-2.56-56.32l29.184-405.504c3.584-51.2 46.08-90.624 97.28-90.624h436.224c51.2 0 93.696 39.424 97.28 90.624l29.184 405.504c1.536 18.944 0.512 37.888-2.56 56.32l-21.504 129.536c-8.704 47.104-49.152 81.92-97.28 81.92zM288.256 712.704h448c21.504 0 40.448-15.872 44.032-37.376l21.504-129.536c2.56-14.336 3.072-29.184 2.048-44.032l-29.184-405.504c-1.536-23.04-20.992-41.472-44.544-41.472H293.888c-23.04 0-42.496 17.92-44.544 40.96L220.16 501.248c-1.024 14.848-0.512 29.184 2.048 44.032l21.504 129.536c4.096 22.016 22.528 37.888 44.544 37.888zM654.336 517.12H369.664c-34.304 0-61.952-27.648-61.952-61.952v-284.16c0-34.304 27.648-61.952 61.952-61.952h284.16c34.304 0 61.952 27.648 61.952 61.952V455.168c0.512 34.304-27.136 61.952-61.44 61.952zM369.664 463.872h284.16c5.12 0 8.704-4.096 8.704-8.704v-284.16c0-5.12-4.096-8.704-8.704-8.704H369.664c-5.12 0-8.704 4.096-8.704 8.704V455.168c0 4.608 4.096 8.704 8.704 8.704zM537.088 583.168c13.824 0 25.088 11.264 25.088 25.088s-11.264 25.088-25.088 25.088-25.088-11.264-25.088-25.088c0-14.336 11.264-25.088 25.088-25.088z m70.656 0c13.824 0 25.088 11.264 25.088 25.088s-11.264 25.088-25.088 25.088-25.088-11.264-25.088-25.088c0.512-14.336 11.776-25.088 25.088-25.088z m71.168 0c13.824 0 25.088 11.264 25.088 25.088s-11.264 25.088-25.088 25.088-25.088-11.264-25.088-25.088c0.512-14.336 11.264-25.088 25.088-25.088zM394.752 586.24l-46.08-38.912c-4.096-3.072-5.12-2.048-3.072 2.56l9.216 20.48c2.048 4.608 0.512 11.264-3.072 14.336l-25.088 22.528c-3.584 3.072-3.584 8.704-0.512 11.776l0.512 0.512 49.664 48.128c3.584 3.584 5.12 2.56 3.584-2.048l-10.752-32.768c-1.536-4.608 0-11.264 4.096-14.848l22.016-19.968c3.584-3.072 3.584-8.704-0.512-11.776zM423.424 408.576h168.448v-44.032H423.424zM423.424 337.92h168.448v-44.032H423.424zM423.424 266.24h168.448v-44.032H423.424z"  horiz-adv-x="1024" />

    
    <glyph glyph-name="ICOM-Mode" unicode="&#58965;" d="M735.744 765.952H288.256c-47.616 0-88.576-34.816-96.256-81.92l-21.504-129.536c-3.072-18.432-4.096-37.376-2.56-56.32l29.184-405.504c3.584-51.2 46.08-90.624 97.28-90.624h436.224c51.2 0 93.696 39.424 97.28 90.624l29.184 405.504c1.536 18.944 0.512 37.888-2.56 56.32l-21.504 129.536c-8.704 47.104-49.152 81.92-97.28 81.92zM288.256 712.704h448c21.504 0 40.448-15.872 44.032-37.376l21.504-129.536c2.56-14.336 3.072-29.184 2.048-44.032l-29.184-405.504c-1.536-23.04-20.992-41.472-44.544-41.472H293.888c-23.04 0-42.496 17.92-44.544 40.96L220.16 501.248c-1.024 14.848-0.512 29.184 2.048 44.032l21.504 129.536c4.096 22.016 22.528 37.888 44.544 37.888zM654.336 517.12H369.664c-34.304 0-61.952-27.648-61.952-61.952v-284.16c0-34.304 27.648-61.952 61.952-61.952h284.16c34.304 0 61.952 27.648 61.952 61.952V455.168c0.512 34.304-27.136 61.952-61.44 61.952zM369.664 463.872h284.16c5.12 0 8.704-4.096 8.704-8.704v-284.16c0-5.12-4.096-8.704-8.704-8.704H369.664c-5.12 0-8.704 4.096-8.704 8.704V455.168c0 4.608 4.096 8.704 8.704 8.704zM537.088 583.168c13.824 0 25.088 11.264 25.088 25.088s-11.264 25.088-25.088 25.088-25.088-11.264-25.088-25.088c0-14.336 11.264-25.088 25.088-25.088z m70.656 0c13.824 0 25.088 11.264 25.088 25.088s-11.264 25.088-25.088 25.088-25.088-11.264-25.088-25.088c0.512-14.336 11.776-25.088 25.088-25.088z m71.168 0c13.824 0 25.088 11.264 25.088 25.088s-11.264 25.088-25.088 25.088-25.088-11.264-25.088-25.088c0.512-14.336 11.264-25.088 25.088-25.088zM394.752 586.24l-46.08-38.912c-4.096-3.072-5.12-2.048-3.072 2.56l9.216 20.48c2.048 4.608 0.512 11.264-3.072 14.336l-25.088 22.528c-3.584 3.072-3.584 8.704-0.512 11.776l0.512 0.512 49.664 48.128c3.584 3.584 5.12 2.56 3.584-2.048l-10.752-32.768c-1.536-4.608 0-11.264 4.096-14.848l22.016-19.968c3.584-3.072 3.584-8.704-0.512-11.776zM512 222.208c-5.12 5.12-4.608 12.8 0 18.432l72.704 72.704c4.608 4.608 12.8 4.608 18.432 0 5.12-5.12 4.608-12.8 0-18.432l-72.704-72.704c-5.632-4.608-13.824-4.608-18.432 0z m-90.624 90.624c-5.12 5.12-4.608 12.8 0 18.432l72.704 72.704c4.608 4.608 12.8 4.608 18.432 0 5.12-5.12 4.608-12.8 0-18.432l-73.216-72.704c-5.12-4.608-13.312-4.608-17.92 0z m17.92-72.192c-5.12 5.12-5.12 12.8 0 18.432l126.976 126.976c5.12 5.12 12.8 5.12 18.432 0 5.12-5.12 5.12-12.8 0-18.432L457.728 240.64c-5.12-5.12-13.312-5.12-18.432 0z"  horiz-adv-x="1024" />

    
    <glyph glyph-name="Mimic" unicode="&#58966;" d="M947.2 547.328c0 9.728-8.192 17.92-17.92 17.92h-72.704v-35.84h72.704c9.728 0 17.92 8.192 17.92 17.92zM929.28 456.704h-72.704v-36.352h72.704c10.24 1.024 16.896 10.24 15.872 20.48-1.024 8.192-7.68 14.848-15.872 15.872zM929.28 348.16h-72.704v-36.352h72.704c10.24 1.024 16.896 10.24 15.872 20.48-1.024 8.192-7.68 14.848-15.872 15.872zM929.28 238.592h-72.704v-35.84h72.704c9.728 0 17.92 8.192 17.92 17.92 0 10.24-8.192 17.92-17.92 17.92zM76.288 547.328c0-9.728 8.192-17.92 17.92-17.92h72.704v36.352H94.72c-9.728 0.512-17.408-7.168-17.92-16.896-0.512-0.512-0.512-1.024-0.512-1.536zM76.288 438.784c0-9.728 8.192-17.92 17.92-18.432h72.704v36.352H94.72c-10.24 0-18.432-8.192-18.432-17.92zM76.288 329.728c0-9.728 8.192-17.92 17.92-17.92h72.704V348.16H94.72c-9.728 0-17.92-7.68-17.92-17.408-0.512-0.512-0.512-0.512-0.512-1.024zM76.288 220.672c0-9.728 8.192-17.92 17.92-17.92h72.704v35.84H94.72c-9.728 0.512-17.408-7.168-17.92-16.896-0.512 0-0.512-0.512-0.512-1.024zM366.08 801.28c0 9.728-8.192 17.92-17.92 17.92s-17.92-8.192-17.92-17.92v-72.704h35.84V801.28zM475.648 801.28c-1.024 10.24-10.24 16.896-20.48 15.872-8.192-1.024-14.848-7.68-15.872-15.872v-72.704h36.352V801.28zM584.192 801.28c-1.024 10.24-10.24 16.896-20.48 15.872-8.192-1.024-14.848-7.68-15.872-15.872v-72.704h36.352V801.28zM693.248 801.28c0 9.728-8.192 17.92-17.92 17.92s-17.92-8.192-17.92-17.92v-72.704h35.84V801.28zM330.24-33.28c-0.512-9.728 7.168-17.408 16.896-17.92h1.536c9.728 0 17.92 8.192 17.92 17.92v72.704h-36.352v-72.704zM439.296-33.28c0-10.24 8.192-18.432 18.432-18.432s18.432 8.192 18.432 18.432v72.704h-36.352v-72.704zM547.84-33.28c0-9.728 7.68-17.92 17.408-17.92h1.024c9.728 0 17.92 8.192 17.92 17.92v72.704H547.84v-72.704zM657.408-33.28c-0.512-9.728 7.168-17.408 16.896-17.92h1.024c9.728 0 17.92 8.192 17.92 17.92v72.704h-35.84v-72.704zM745.472 692.224H274.944c-39.936 0-72.704-32.768-72.704-72.704v-470.016c0-39.936 32.768-72.192 72.704-72.192h470.016c39.936 0 72.704 32.256 72.704 72.192V619.52c0 39.936-32.256 72.192-72.192 72.704z m13.312-326.656h-230.912c-3.072 0-6.144-0.512-8.704-2.56L414.72 285.696c-6.656 3.072-13.824 4.608-20.992 5.12-27.136 0-49.152-22.016-49.152-49.152s22.016-49.152 49.152-49.152 49.152 22.016 49.152 49.152c0 8.704-2.048 16.896-6.144 24.576l95.744 68.608h226.304v-164.864c0.512-18.944-14.336-34.816-33.792-35.328H299.008c-18.944 0-34.304 15.872-34.304 34.816V403.456h230.912c3.072 0 6.144 0.512 8.704 2.048l104.448 76.8c6.656-3.072 13.824-4.608 20.992-5.12 27.136 0 49.152 22.016 49.152 49.152s-22.016 49.152-49.152 49.152-49.152-22.016-49.152-49.152c0-8.704 2.048-16.896 6.144-24.576L491.008 433.152H264.704v163.84c-0.512 18.944 14.336 35.328 33.28 35.84h426.496c18.944 0 34.304-15.872 34.304-34.816V365.568z"  horiz-adv-x="1024" />

    
    <glyph glyph-name="UPS-AC" unicode="&#58967;" d="M761.344 776.704h-506.88c-13.312 0-24.064-11.264-24.064-25.088v-691.712c0-13.824 10.752-25.088 24.064-25.088h364.544c-4.608 3.072-8.704 6.144-13.312 9.728-10.752 8.704-20.48 17.92-29.696 28.672H267.264V738.304h481.28V419.84c12.8-0.512 25.088-2.56 36.864-5.12V751.616c0 13.824-10.752 25.088-24.064 25.088zM668.16-1.536H348.16l8.192 36.352 2.048 9.728h247.296c4.096-3.584 8.704-6.656 13.312-9.728 13.824-9.216 29.184-17.408 45.056-23.04l4.096-13.312zM666.624 659.456H349.696c-13.312 0-24.064-10.752-24.064-24.064v-178.176c0-13.312 10.752-24.064 24.064-24.064h316.928c13.312 0 24.064 10.752 24.064 24.064V635.392c0 13.312-11.264 24.064-24.064 24.064zM356.352 465.92V628.736h156.16L453.12 465.92H356.352z m132.096 0L547.84 628.736h66.048l-61.44-162.816H488.448z m171.52 0h-72.704l59.392 162.816h13.312V465.92zM289.28 240.64H286.72c-5.632 0-10.24 4.608-10.24 10.24v54.784c0 5.632 4.608 10.24 10.24 10.24h2.56c5.632 0 10.24-4.608 10.24-10.24V250.88c0-5.632-4.608-10.24-10.24-10.24zM614.912 380.928c-13.312-9.728-25.6-20.48-36.352-32.768H371.2c-9.216 0-16.384 7.168-16.384 16.384 0 4.608 2.048 8.704 4.608 11.776 3.072 3.072 7.168 4.608 11.776 4.608h243.712zM540.672 285.184c-4.096-10.752-7.168-21.504-9.728-32.768H371.2c-9.216 0-16.384 7.168-16.384 16.384 0 4.608 2.048 8.704 4.608 11.776 3.072 3.072 7.168 4.608 11.776 4.608h169.472zM532.992 156.16H371.2c-9.216 0-16.384 7.168-16.384 16.384 0 4.608 2.048 8.704 4.608 11.776 3.072 3.072 7.168 4.608 11.776 4.608H527.36c1.024-11.264 3.072-22.016 5.632-32.768zM778.24 157.184c-28.672 0.512-49.664 19.968-50.176 46.592 1.536 21.504-11.264 30.72-11.776 31.232-11.264 6.144-20.992 8.192-28.672 4.096-11.776-5.12-16.896-22.528-17.92-28.672-1.024-5.632-6.656-9.728-12.288-9.216-5.632 0.512-9.728 6.656-9.216 12.288 0 1.536 5.632 33.28 29.696 45.056 14.336 6.656 30.72 4.608 48.64-5.12 1.536-1.024 25.088-16.384 22.016-50.688 0.512-14.848 12.288-24.576 30.208-24.576 13.824 0 24.064 4.608 28.16 27.136 1.024 5.632 6.656 9.728 12.288 8.704 5.632-1.024 9.728-6.656 8.704-12.288v-0.512c-5.632-29.696-22.528-45.056-49.664-45.056v1.024zM600.064 222.72h36.352v-17.92h-36.352zM848.384 222.72h36.352v-17.92h-36.352zM743.936 390.656c-100.352 0-181.248-81.408-181.248-181.248 0-100.352 81.408-181.248 181.248-181.248 100.352 0 181.248 81.408 181.248 181.248s-80.896 181.248-181.248 181.248z m0-337.92c-86.528 0-156.16 70.144-156.16 156.16 0 86.528 70.144 156.16 156.16 156.16s156.16-70.144 156.16-156.16-69.632-156.16-156.16-156.16z"  horiz-adv-x="1024" />

    
    <glyph glyph-name="UPS-Battery" unicode="&#58968;" d="M761.344 776.704h-506.88c-13.312 0-24.064-11.264-24.064-25.088v-691.712c0-13.824 10.752-25.088 24.064-25.088h364.544c-4.608 3.072-8.704 6.144-13.312 9.728-10.752 8.704-20.48 17.92-29.696 28.672H267.264V738.304h481.28V419.84c12.8-0.512 25.088-2.56 36.864-5.12V751.616c0 13.824-10.752 25.088-24.064 25.088zM668.16-1.536H348.16l8.192 36.352 2.048 9.728h247.296c4.096-3.584 8.704-6.656 13.312-9.728 13.824-9.216 29.184-17.408 45.056-23.04l4.096-13.312zM666.624 659.456H349.696c-13.312 0-24.064-10.752-24.064-24.064v-178.176c0-13.312 10.752-24.064 24.064-24.064h316.928c13.312 0 24.064 10.752 24.064 24.064V635.392c0 13.312-11.264 24.064-24.064 24.064zM356.352 465.92V628.736h156.16L453.12 465.92H356.352z m132.096 0L547.84 628.736h66.048l-61.44-162.816H488.448z m171.52 0h-72.704l59.392 162.816h13.312V465.92zM289.28 240.64H286.72c-5.632 0-10.24 4.608-10.24 10.24v54.784c0 5.632 4.608 10.24 10.24 10.24h2.56c5.632 0 10.24-4.608 10.24-10.24V250.88c0-5.632-4.608-10.24-10.24-10.24zM614.912 380.928c-13.312-9.728-25.6-20.48-36.352-32.768H371.2c-9.216 0-16.384 7.168-16.384 16.384 0 4.608 2.048 8.704 4.608 11.776 3.072 3.072 7.168 4.608 11.776 4.608h243.712zM540.672 285.184c-4.096-10.752-7.168-21.504-9.728-32.768H371.2c-9.216 0-16.384 7.168-16.384 16.384 0 4.608 2.048 8.704 4.608 11.776 3.072 3.072 7.168 4.608 11.776 4.608h169.472zM532.992 156.16H371.2c-9.216 0-16.384 7.168-16.384 16.384 0 4.608 2.048 8.704 4.608 11.776 3.072 3.072 7.168 4.608 11.776 4.608H527.36c1.024-11.264 3.072-22.016 5.632-32.768zM743.936 390.656c-100.352 0-181.248-81.408-181.248-181.248 0-100.352 81.408-181.248 181.248-181.248 100.352 0 181.248 81.408 181.248 181.248s-80.896 181.248-181.248 181.248z m0-337.92c-86.528 0-156.16 70.144-156.16 156.16 0 86.528 70.144 156.16 156.16 156.16s156.16-70.144 156.16-156.16-69.632-156.16-156.16-156.16zM665.088 302.592h168.448v-44.032h-168.448zM665.088 231.936h168.448v-44.032h-168.448zM665.088 160.256h168.448v-44.032h-168.448z"  horiz-adv-x="1024" />

    
    <glyph glyph-name="motiondetecor" unicode="&#58969;" d="M760.72497559 700.32900238H263.27502441c-24.94480133 0-45.18985748-20.24505615-45.18985748-45.18985748v-542.2782898c0-24.94480133 20.24505615-45.18985748 45.18985749-45.18985748h497.08843231c24.94480133 0 45.18985748 20.24505615 45.18985748 45.18985748V655.1391449c0 24.94480133-20.24505615 45.18985748-44.82833863 45.18985748zM263.27502441 112.86085509999998v40.4901123H331.24057007c12.6531601 0 22.41416932 10.12252807 22.41416931 22.41416931 0 12.6531601-10.12252807 22.41416932-22.41416931 22.41416932H263.27502441v36.87492371H331.24057007c12.6531601 0 22.41416932 10.12252807 22.41416931 22.4141693 0 12.6531601-10.12252807 22.41416932-22.41416931 22.41416932H263.27502441V655.1391449h497.08843232v-374.53353883H692.75942993c-12.6531601 0-22.41416932-10.12252807-22.41416931-22.4141693 0-12.6531601 10.12252807-22.41416932 22.41416931-22.41416932h67.96554565v-36.8749237H692.75942993c-12.6531601 0-22.41416932-10.12252807-22.41416931-22.41416932 0-12.6531601 10.12252807-22.41416932 22.41416931-22.4141693h67.96554565V112.86085509999998H263.27502441zM707.22018433 609.58776857H316.77981567v-256.67839052h390.44036866v256.6783905z m-39.04403687-221.24954226H355.82385253V570.1822128399999h312.35229494v-181.84398653zM631.30122375 545.96044922c5.78430176 0 10.8455658-4.69974518 10.8455658-10.8455658s-4.69974518-10.8455658-10.8455658-10.84556579c-11.93012238 0-25.30632019-6.14582062-35.79036712-21.69113159-10.8455658-15.54531098-18.43746185-40.12859345-18.43746186-75.91896057 0-5.78430176-4.69974518-11.20708466-10.84556579-11.20708467-5.78430176 0-10.48404694 4.69974518-11.20708466 10.12252807-1.08455658 12.29164123-4.33822633 31.09062195-11.20708465 45.91289522-7.23037719 15.54531098-16.2683487 23.86024475-27.1139145 23.86024474s-19.8835373-7.95341492-27.11391449-23.86024474c-6.86885833-15.18379211-10.48404694-33.62125396-11.20708465-45.91289522-0.36151885-5.78430176-5.4227829-10.48404694-11.56860351-10.12252807-5.06126404 0.36151885-9.39949036 4.69974518-10.12252808 9.76100923-0.36151885 2.53063203-1.44607543 6.86885833-4.33822632 12.29164123-2.53063203 5.78430176-5.78430176 11.20708466-9.39949036 16.2683487s-7.59189606 9.76100921-10.84556579 13.01467895c-0.72303772 0.72303772-1.44607543 1.44607543-2.53063202 2.16911315-15.54531098-9.0379715-35.42884826-3.97670745-44.46681977 11.20708465-9.0379715 15.54531098-3.97670745 35.42884826 11.20708466 44.46681978 15.54531098 9.0379715 35.42884826 3.97670745 44.46681977-11.20708466 4.69974518-8.31493378 5.78430176-18.79898071 2.53063201-27.83695221 1.44607543-1.08455658 2.16911316-1.8075943 3.61518861-3.25366974 4.69974518-4.69974518 9.39949036-10.12252807 13.73771667-16.26834869l2.16911316-3.25366974c1.44607543 6.14582062 3.97670745 12.29164123 6.50733947 18.075943 7.95341492 17.71442414 22.77568817 36.51340484 46.63593293 36.51340485 23.13720703 0 37.23644257-16.99138642 45.55137635-33.98277283 3.6151886 12.29164123 8.67645263 22.77568817 14.46075439 31.4521408 15.54531098 20.606575 35.06732941 31.09062195 55.31238555 31.09062195zM414.38990784 486.6713562c5.78430176 0 10.8455658 4.69974518 10.8455658 10.84556581 0 5.78430176-4.69974518 10.8455658-10.8455658 10.84556578s-10.8455658-4.69974518-10.8455658-10.84556578c0-5.78430176 5.06126404-10.8455658 10.8455658-10.84556581z"  horiz-adv-x="1024" />

    
    <glyph glyph-name="ICOM-comm" unicode="&#58970;" d="M735.744 765.952H288.256c-47.616 0-88.576-34.816-96.256-81.92l-21.504-129.536c-3.072-18.432-4.096-37.376-2.56-56.32l29.184-405.504c3.584-51.2 46.08-90.624 97.28-90.624h436.224c51.2 0 93.696 39.424 97.28 90.624l29.184 405.504c1.536 18.944 0.512 37.888-2.56 56.32l-21.504 129.536c-8.704 47.104-49.152 81.92-97.28 81.92zM288.256 712.704h448c21.504 0 40.448-15.872 44.032-37.376l21.504-129.536c2.56-14.336 3.072-29.184 2.048-44.032l-29.184-405.504c-1.536-23.04-20.992-41.472-44.544-41.472H293.888c-23.04 0-42.496 17.92-44.544 40.96L220.16 501.248c-1.024 14.848-0.512 29.184 2.048 44.032l21.504 129.536c4.096 22.016 22.528 37.888 44.544 37.888zM654.336 517.12H369.664c-34.304 0-61.952-27.648-61.952-61.952v-284.16c0-34.304 27.648-61.952 61.952-61.952h284.16c34.304 0 61.952 27.648 61.952 61.952V455.168c0.512 34.304-27.136 61.952-61.44 61.952zM369.664 463.872h284.16c5.12 0 8.704-4.096 8.704-8.704v-284.16c0-5.12-4.096-8.704-8.704-8.704H369.664c-5.12 0-8.704 4.096-8.704 8.704V455.168c0 4.608 4.096 8.704 8.704 8.704zM537.088 583.168c13.824 0 25.088 11.264 25.088 25.088s-11.264 25.088-25.088 25.088-25.088-11.264-25.088-25.088c0-14.336 11.264-25.088 25.088-25.088z m70.656 0c13.824 0 25.088 11.264 25.088 25.088s-11.264 25.088-25.088 25.088-25.088-11.264-25.088-25.088c0.512-14.336 11.776-25.088 25.088-25.088z m71.168 0c13.824 0 25.088 11.264 25.088 25.088s-11.264 25.088-25.088 25.088-25.088-11.264-25.088-25.088c0.512-14.336 11.264-25.088 25.088-25.088zM394.752 586.24l-46.08-38.912c-4.096-3.072-5.12-2.048-3.072 2.56l9.216 20.48c2.048 4.608 0.512 11.264-3.072 14.336l-25.088 22.528c-3.584 3.072-3.584 8.704-0.512 11.776l0.512 0.512 49.664 48.128c3.584 3.584 5.12 2.56 3.584-2.048l-10.752-32.768c-1.536-4.608 0-11.264 4.096-14.848l22.016-19.968c3.584-3.072 3.584-8.704-0.512-11.776zM580.608 320.512c-17.408 19.968-43.008 33.792-72.704 33.792-28.16 0-55.296-12.288-72.704-32.256-1.536-3.584 1.536-10.752 7.168-15.872 7.168-5.12 14.336-7.168 15.872-3.584 12.288 14.336 30.72 23.04 49.664 23.04 17.408 0 35.84-7.168 48.128-19.968 1.536-3.584 9.216-1.536 15.872 3.584 7.168 2.048 10.24 7.168 8.704 11.264zM552.448 284.672c-10.752 11.776-26.112 20.48-44.544 20.48-17.408 0-33.28-7.168-44.544-19.456-1.024-2.048 1.024-6.144 4.608-9.728 4.608-3.584 8.704-4.608 9.728-2.048 7.168 8.704 18.432 14.336 30.72 14.336 10.752 0 21.504-4.608 29.184-11.776 1.024-2.048 5.632-1.024 9.728 2.048 4.096 1.536 6.144 4.096 5.12 6.144zM617.984 348.672c0 2.048-1.536 2.048 0 0-1.536 2.048-1.536 2.048 0 0-1.536 2.048-1.536 2.048 0 0-28.16 32.256-66.048 51.2-110.08 51.2-43.008 0-81.92-19.968-108.544-49.664-3.584-3.584 0-10.752 7.168-15.872s14.336-7.168 17.408-3.584c21.504 23.04 49.664 38.912 83.456 38.912 33.792 0 64-14.336 85.504-38.912 3.584-1.536 10.752 0 15.872 5.12 5.632 4.096 9.216 9.728 9.216 12.8zM507.904 246.784m-17.408 0a17.408 17.408 0 1 1 34.816 0 17.408 17.408 0 1 1-34.816 0Z"  horiz-adv-x="1024" />

    
    <glyph glyph-name="UPS-Status" unicode="&#58971;" d="M761.344 776.704h-506.88c-13.312 0-24.064-11.264-24.064-25.088v-691.712c0-13.824 10.752-25.088 24.064-25.088h364.544c-4.608 3.072-8.704 6.144-13.312 9.728-10.752 8.704-20.48 17.92-29.696 28.672H267.264V738.304h481.28V419.84c12.8-0.512 25.088-2.56 36.864-5.12V751.616c0 13.824-10.752 25.088-24.064 25.088zM668.16-1.536H348.16l8.192 36.352 2.048 9.728h247.296c4.096-3.584 8.704-6.656 13.312-9.728 13.824-9.216 29.184-17.408 45.056-23.04l4.096-13.312zM666.624 659.456H349.696c-13.312 0-24.064-10.752-24.064-24.064v-178.176c0-13.312 10.752-24.064 24.064-24.064h316.928c13.312 0 24.064 10.752 24.064 24.064V635.392c0 13.312-11.264 24.064-24.064 24.064zM356.352 465.92V628.736h156.16L453.12 465.92H356.352z m132.096 0L547.84 628.736h66.048l-61.44-162.816H488.448z m171.52 0h-72.704l59.392 162.816h13.312V465.92zM289.28 240.64H286.72c-5.632 0-10.24 4.608-10.24 10.24v54.784c0 5.632 4.608 10.24 10.24 10.24h2.56c5.632 0 10.24-4.608 10.24-10.24V250.88c0-5.632-4.608-10.24-10.24-10.24zM614.912 380.928c-13.312-9.728-25.6-20.48-36.352-32.768H371.2c-9.216 0-16.384 7.168-16.384 16.384 0 4.608 2.048 8.704 4.608 11.776 3.072 3.072 7.168 4.608 11.776 4.608h243.712zM540.672 285.184c-4.096-10.752-7.168-21.504-9.728-32.768H371.2c-9.216 0-16.384 7.168-16.384 16.384 0 4.608 2.048 8.704 4.608 11.776 3.072 3.072 7.168 4.608 11.776 4.608h169.472zM532.992 156.16H371.2c-9.216 0-16.384 7.168-16.384 16.384 0 4.608 2.048 8.704 4.608 11.776 3.072 3.072 7.168 4.608 11.776 4.608H527.36c1.024-11.264 3.072-22.016 5.632-32.768zM743.936 390.656c-100.352 0-181.248-81.408-181.248-181.248 0-100.352 81.408-181.248 181.248-181.248 100.352 0 181.248 81.408 181.248 181.248s-80.896 181.248-181.248 181.248z m0-337.92c-86.528 0-156.16 70.144-156.16 156.16 0 86.528 70.144 156.16 156.16 156.16s156.16-70.144 156.16-156.16-69.632-156.16-156.16-156.16zM617.984 162.816c0-9.216 7.168-17.408 16.384-17.408 9.216 0 16.896 7.68 17.408 16.896 0 9.216-7.168 17.408-16.384 17.408-9.728 0-17.408-7.68-17.408-16.896zM697.856 237.056c0-7.68 6.144-14.336 13.824-14.336 7.68 0 14.336 6.144 14.336 14.336 0 7.68-6.144 14.336-13.824 14.336-7.68-0.512-14.336-6.656-14.336-14.336zM632.32 166.912l69.12 67.584 7.68-8.192L640 158.72l-7.68 8.192zM694.784 237.056c0-9.216 7.168-17.408 16.384-17.408 9.216 0 16.896 7.68 17.408 16.896 0 9.216-7.168 17.408-16.384 17.408s-16.896-7.68-17.408-16.896zM632.32 166.912l69.12 67.584 7.68-8.192L640 158.72l-7.68 8.192zM762.368 173.568c0-9.216 7.168-17.408 16.384-17.408s16.896 7.68 17.408 16.896c0 9.216-7.168 17.408-16.384 17.408s-17.408-7.168-17.408-16.896zM842.24 248.32c0-7.68 6.144-14.336 13.824-14.336s14.336 6.144 14.336 14.336c0 7.68-6.144 14.336-13.824 14.336-7.68-0.512-14.336-6.656-14.336-14.336zM776.704 178.176l69.12 67.584 7.68-8.192-69.12-67.584-7.68 8.192zM839.168 248.32c0-9.216 7.168-17.408 16.384-17.408s16.896 7.68 17.408 16.896c0 9.216-7.168 17.408-16.384 17.408s-16.896-7.68-17.408-16.896zM776.704 178.176l69.12 67.584 7.68-8.192-69.12-67.584-7.68 8.192zM774.144 182.784L719.36 240.64l-8.192-8.192 54.784-57.856 8.192 8.192z"  horiz-adv-x="1024" />

    
    <glyph glyph-name="Main_gate" unicode="&#58951;" d="M841.14285688 198.85714312000005V557.71428563H809.14285719v-91.42857094h-91.42857188v91.42857093h-31.99999968v-91.42857093l-45.71428594-38.85714282-45.714285 41.14285688v91.42857094h-32.00000063v-91.42857094l-45.71428593-38.85714281-45.714285 38.85714281v91.42857094h-32.00000063v-93.714285l-45.714285-38.85714282-45.71428594 38.85714282v91.42857093h-31.99999968v-93.71428593l-45.71428594-38.85714282-45.71428594 41.14285782v91.42857093H187.42857125v-358.8571425h-11.42857125v-18.28571437h54.85714313v18.28571437h-11.42857125v59.42857125l45.714285 41.14285688 45.71428593-38.85714281v-61.71428532h-11.42857125v-18.28571437h54.85714313v18.28571437h-11.42857219V258.28571437000005l45.71428594 38.85714282 45.71428594-38.85714281v-61.71428625h-11.42857125v-18.28571344h54.85714218v18.28571344H466.28571406V256.00000031l45.71428594 38.85714282 45.71428594-38.85714282v-61.71428625h-11.42857125v-18.28571437H603.42857188v18.28571437h-11.42857219v59.42857125l45.71428593 41.14285782 45.71428594-38.85714282v-61.71428625H672.00000031v-18.28571437h54.85714219v18.28571437H717.71428531V223.99999968999998h91.42857188v-25.14285657h-11.42857125v-18.28571437h54.85714219v18.28571437h-11.42857125z m-157.71428532 240.00000001v-50.28571501l-29.71428562 25.1428575c0-2.28571406 29.71428562 25.1428575 29.71428562 25.1428575z m-59.42857125-27.42857157L591.99999969 384v52.57142812l32.00000062-25.14285656z m-64.00000031 27.42857156v-50.285715l-29.71428562 25.1428575 29.71428562 25.1428575z m-61.71428531-27.42857156L468.57142812 384v52.57142812l29.71428657-25.14285656z m-61.71428625 27.42857156v-50.285715l-29.71428563 25.1428575 29.71428563 25.1428575zM374.85714312 411.42857156L345.1428575 384v52.57142812l29.71428562-25.14285656z m-64.00000031 27.42857156v-50.28571499l-27.42857156 22.85714343 27.42857156 27.42857157z m-59.42857125-27.42857156L219.42857187 384v52.57142812l31.99999969-25.14285656z m-31.99999968-125.71428562V338.28571406000003l31.99999968-27.42857156-31.99999968-25.14285656z m48 41.14285687l-41.14285782 36.57142875 41.14285782 36.57142875 41.14285687-36.57142875-41.14285687-36.57142875z m15.99999937-13.71428531l29.71428563 25.14285656v-50.28571406L283.42857125 313.1428575z m61.71428625-25.1428575v52.57142812l29.71428563-27.42857062-29.71428563-25.1428575z m45.714285 38.85714281l-41.14285687 36.57142875 41.14285687 36.57142875 41.14285781-36.57142875-41.14285781-36.57142875z m16.00000031-13.71428531l29.71428563 25.14285656v-50.28571406l-29.71428563 25.1428575z m61.71428532-25.1428575v52.57142812l29.71428656-27.42857062-29.71428656-25.1428575z m45.71428593 38.85714281l-41.14285687 36.57142875 41.14285687 36.57142875 41.14285782-36.57142875-41.14285782-36.57142875z m16.00000032-13.71428531l29.71428562 25.14285656v-50.28571406l-29.71428562 25.1428575z m61.71428531-27.42857156V338.28571406000003l32.00000062-27.42857156-32.00000062-25.14285656z m48 41.14285687l-41.14285688 36.57142875 41.14285688 36.57142875 41.14285781-36.57142875-41.14285781-36.57142875z m13.71428625-13.71428531l29.71428562 25.14285656v-50.28571406l-29.71428562 25.1428575z m63.99999937 31.99999969v100.57142812h91.42857188v-100.57142812h-91.42857188z"  horiz-adv-x="1024" />

    
    <glyph glyph-name="Side_gate_open" unicode="&#58950;" d="M295.17909183 620.5318998299999c-32.44429226 0-59.13297496-26.68868271-59.13297496-59.13297497 0-15.13804159 5.95271948-28.89631376 15.49283945-39.4219833A58.65991116 58.65991116 0 0 1 236.04611687 482.55495826v-315.37586644a19.71099165 19.71099165 0 0 1 19.71099166-19.71099165h315.37586643a19.71099165 19.71099165 0 0 1 19.71099165 19.71099165V482.55495826a19.71099165 19.71099165 0 0 1-19.71099165 19.71099165H350.17275853a52.74661366 52.74661366 0 0 1-13.00925448 17.73989248C347.68917359 530.64977789 354.31206679 545.27533371 354.31206679 561.3989248600001c0 32.44429226-26.68868271 59.13297496-59.13297496 59.13297497z m433.64181634 0c-32.44429226 0-59.13297496-26.68868271-59.13297496-59.13297497 0-15.13804159 5.95271948-28.89631376 15.49283945-39.4219833A58.65991116 58.65991116 0 0 1 669.68793321 482.55495826v-315.37586644a19.71099165 19.71099165 0 0 1 19.71099165-19.71099165h78.84396661a19.71099165 19.71099165 0 0 1 19.71099167 19.71099165V482.55495826c0 15.37457349-6.93826906 27.8713422-17.18798473 37.45088413C781.37041192 530.64977789 787.95388313 545.31475568 787.95388313 561.3989248600001c0 32.44429226-26.68868271 59.13297496-59.13297495 59.13297497z m-433.64181634-39.42198332c11.11699929 0 19.71099165-8.59399235 19.71099166-19.71099165 0-11.11699929-8.59399235-19.71099165-19.71099167-19.71099165a19.43503777 19.43503777 0 0 0-19.71099165 19.71099165c0 11.11699929 8.59399235 19.71099165 19.71099165 19.71099165z m433.64181634 0c11.11699929 0 19.71099165-8.59399235 19.71099166-19.71099165 0-11.11699929-8.59399235-19.71099165-19.71099165-19.71099165a19.43503777 19.43503777 0 0 0-19.71099166 19.71099165c0 11.11699929 8.59399235 19.71099165 19.71099166 19.71099165zM295.17909183 502.26594991c11.07757731 0 19.71099165-8.63341433 19.71099165-19.71099164v-295.66487478h-39.42198331V482.55495826c0 11.07757731 8.63341433 19.71099165 19.71099165 19.71099165z m433.64181634 0c11.07757731 0 19.71099165-8.63341433 19.71099166-19.71099164v-295.66487478h-39.42198331V482.55495826c0 11.07757731 8.63341433 19.71099165 19.71099166 19.71099165z m-374.50884138-39.4219833h197.10991651v-275.95388312H354.31206679V462.84396661z m137.97694156-118.26594992a19.71099165 19.71099165 0 0 1-19.71099165-19.71099165 19.71099165 19.71099165 0 0 1 19.71099165-19.71099165 19.71099165 19.71099165 0 0 1 19.71099165 19.71099165 19.71099165 19.71099165 0 0 1-19.71099165 19.71099165z"  horiz-adv-x="1024" />

    
    <glyph glyph-name="yuzhi" unicode="&#58949;" d="M425.7 302c21.5-21.5 49.7-32.2 77.9-32.2s56.4 10.7 77.9 32.2c20.8 20.8 32.3 48.5 32.3 77.9 0 29.4-11.5 57.1-32.3 77.9-42.4 42.4-355.1 201.5-358.2 203.1l-1.5 0.7 0.7-1.5c1.7-3 160.8-315.7 203.2-358.1z m381.1 374.2c-38.1 38.1-82.4 68-131.9 88.9-51.2 21.7-105.5 32.7-161.5 32.7h-56V645c0-19.9 16.2-36 36-36 19.9 0 36 16.2 36 36v80.3c40.6-1.9 80-10.7 117.4-26.6 40.8-17.3 77.5-42 109-73.6 31.5-31.6 56.3-68.2 73.6-109 17.9-42.3 26.9-87.2 26.9-133.5 0-46.4-9.1-91.2-26.9-133.5-17.3-40.8-42-77.5-73.6-109-31.5-31.6-68.2-56.3-109-73.6-42.3-17.9-87.2-26.9-133.5-26.9s-91.2 9.1-133.5 26.9c-40.8 17.3-77.5 42-109 73.6-31.5 31.6-56.3 68.2-73.6 109-17.9 42.3-26.9 87.2-26.9 133.5 0 26.8 3.1 53.5 9.2 79.2 4.4 18.6-6.6 37.5-24.9 42.8-9.4 2.8-19.7 1.5-28.2-3.4s-14.7-13.2-16.9-22.9c-7.4-31.2-11.1-63.4-11.1-95.7 0-56 11-110.4 32.7-161.6 20.9-49.4 50.8-93.8 88.9-131.9 38.1-38.1 82.4-68 131.9-88.9 51.2-21.7 105.5-32.7 161.5-32.7s110.4 11 161.5 32.7c49.4 20.9 93.8 50.8 131.9 88.9 38.1 38.1 68 82.5 88.9 131.9 21.6 51.2 32.7 105.5 32.7 161.6 0 56-11 110.3-32.7 161.5-20.9 49.6-50.8 94-88.9 132.1z"  horiz-adv-x="1024" />

    
    <glyph glyph-name="tianjiazu" unicode="&#58948;" d="M763.392 353.28c-127.488 0-230.4 105.984-230.4 237.056s102.4 237.056 229.888 237.056 229.888-106.496 229.888-237.056c0-130.56-102.4-237.056-229.376-237.056z m0 72.704c86.528 0 157.696 73.728 157.696 165.376S849.92 755.712 762.88 755.712s-157.696-73.728-157.696-165.376 71.168-164.352 158.208-164.352zM1027.584 318.976c14.336-13.312 16.384-36.352 2.56-51.712-12.8-14.336-34.816-16.384-49.664-3.584-56.832 49.664-130.56 77.312-206.848 77.824-178.688 0-324.096-151.04-324.096-337.408 0-19.968-16.384-36.352-36.352-36.352-19.456 0-36.352 16.384-36.352 36.352 0 225.792 176.64 410.112 396.288 410.112 94.72 0 183.808-34.304 254.464-95.232z m-124.416-265.216c-19.968 0-36.352 16.384-36.352 36.352s16.384 36.352 36.352 36.352h241.152c19.968 0 36.352-16.384 36.352-36.352s-16.384-36.352-36.352-36.352h-241.152zM1059.84-30.208c0-19.968-16.384-36.352-36.352-36.352s-36.352 16.384-36.352 36.352v241.152c0 19.968 16.384 36.352 36.352 36.352s36.352-16.384 36.352-36.352v-241.152zM464.896 825.856c19.968 0 36.352-16.384 36.352-36.352 0-19.968-16.384-36.352-36.352-36.352-94.208 0-169.984-76.288-169.984-169.984s76.288-169.984 169.984-169.984c19.968 0 36.352-16.384 36.352-36.352s-16.384-36.352-36.352-36.352c-133.632-1.024-242.688 107.008-242.688 241.152s109.056 244.224 242.688 244.224zM464.896 412.672c19.968 0 36.352-16.384 36.352-36.352 0-19.456-16.384-36.352-36.352-36.352-22.528 0-44.032-3.072-65.536-8.192-121.344-30.208-208.384-139.776-208.384-265.728 0-19.968-16.384-36.352-36.352-36.352-19.968 0-36.352 16.384-36.352 36.352 0.512 192 155.136 346.624 346.624 346.624z"  horiz-adv-x="1239" />

    
    <glyph glyph-name="tianjiarenyuan" unicode="&#58947;" d="M439.808 387.584c-148.992 0-267.776 113.152-267.776 254.976S292.864 896 439.808 896s265.728-113.152 265.728-254.976-120.32-253.44-265.728-253.44z m0 434.688c-105.984 0-192-80.896-192-181.248s86.016-181.248 192-181.248 192 80.896 192 181.248c0.512 100.352-86.016 181.248-192 181.248zM66.56-5.632c-19.968 0-37.888 14.336-37.888 35.84 0 220.672 192 402.432 425.472 402.432 73.728 0 140.288-14.336 201.216-48.64 17.92-10.752 25.088-30.72 12.8-48.64-10.752-14.336-30.72-23.552-50.176-12.8-52.736 25.6-110.08 39.424-168.96 39.424-192 0-350.208-151.04-350.208-332.288 5.12-17.408-10.752-35.328-32.256-35.328zM771.584-5.632c-21.504 0-38.4 17.408-38.4 38.4V368.64c0 21.504 17.408 38.4 38.4 38.4 21.504 0 38.4-17.408 38.4-38.4v-335.872c0-21.504-16.896-38.4-38.4-38.4zM939.52 161.792h-335.872c-21.504 0-38.4 17.408-38.4 38.4 0 21.504 17.408 38.4 38.4 38.4h335.872c21.504 0 38.4-17.408 38.4-38.4s-17.408-38.4-38.4-38.4z"  horiz-adv-x="1024" />

    
    <glyph glyph-name="6gongge" unicode="&#59198;" d="M217.088 591.36h175.616v-175.616H217.088V591.36zM432.128 591.36h175.616v-175.616H432.128V591.36zM647.168 591.36h175.616v-175.616h-175.616V591.36zM217.088 307.712h175.616v-175.616H217.088v175.616zM432.128 307.712h175.616v-175.616H432.128v175.616zM647.168 307.712h175.616v-175.616h-175.616v175.616zM123.904 359.936v-394.24h788.992V754.688H123.904v-394.752z m736.256 0v-342.016H176.128V701.952H860.16v-342.016z"  horiz-adv-x="1024" />

    
    <glyph glyph-name="guanlianren" unicode="&#59197;" d="M625.664 389.632c-7.68 7.68-15.36 7.68-23.552 15.36 46.592 38.912 77.824 100.864 77.824 171.008 0 124.416-93.184 217.6-217.6 217.6S245.248 692.736 245.248 576c0-70.144 31.232-132.096 77.824-171.008-132.096-54.272-225.28-186.368-225.28-333.824v-46.592h77.824v46.592c0 155.136 124.416 287.232 279.552 287.232 46.592 0 93.184-15.36 132.096-38.912 14.848 23.552 30.72 46.592 38.4 70.144zM322.56 576c0 77.824 61.952 139.776 139.776 139.776s139.776-61.952 139.776-139.776-61.952-139.776-139.776-139.776S322.56 498.176 322.56 576zM892.928 357.376h-216.064c-22.528 0-40.448-17.92-40.448-40.448v-62.464h-58.88c-22.528 0-40.448-17.92-40.448-40.448v-225.28c0-22.528 17.92-40.448 40.448-40.448H793.6c22.528 0 40.448 17.92 40.448 40.448V51.2h58.88c22.528 0 40.448 17.92 40.448 40.448v225.28c0 22.016-17.92 40.448-40.448 40.448z m-116.736-160.768v-190.464h-181.248v190.464h41.472v-104.96c0-22.528 17.92-40.448 40.448-40.448h72.704v57.856h-55.296v190.464H875.52v-190.464h-41.472v105.472c0 22.528-17.92 40.448-40.448 40.448h-73.216v-57.856h55.808z"  horiz-adv-x="1024" />

    
    <glyph glyph-name="floodlight" unicode="&#59196;" d="M778.62015915 702.7623024H245.37984085c-28.85198593 0-52.14214326-23.29015732-52.14214325-52.14214325v-530.1117897c0-28.85198593 23.29015732-52.14214326 52.14214325-52.14214325h530.1117897c28.85198593 0 52.14214326 23.29015732 52.14214325 52.14214325V650.6201591500001c3.1285286 28.85198593-20.16162873 52.14214326-49.01361465 52.14214325zM703.18785859 117.37984085000005v39.97564316h-43.45178605v-39.97564316H355.57357025v39.97564316H312.12178421v-39.97564316H245.37984085V647.49163056h66.74194336v-31.63290024H355.57357025v31.63290023h304.16250229v-31.63290023H703.18785859v31.63290023h72.30377196v-530.1117897H703.18785859zM601.33687211 364.99708556999997c33.37097168 52.83737182 17.72832871 122.70784378-35.10904312 156.07881546-8.34274292 5.21421433-13.20934297 14.25218582-13.20934296 23.9853859v3.1285286c0 5.21421433-4.17137146 9.38558579-9.38558578 9.38558578H468.20059967c-5.21421433 0-9.38558579-4.17137146-9.38558577-9.38558578v-3.1285286c0-9.73320007-4.86660004-18.77117157-13.20934297-23.9853859-32.67574311-20.8568573-52.48975754-56.661129-52.48975754-95.59392928 0-62.5705719 50.40407181-113.322258 112.97464372-113.322258 38.58518601 0 74.38945771 20.16162873 95.246315 52.83737182z m-95.59392929 135.91718674c41.7137146 0 75.43230056-33.71858597 75.43230057-75.43230057s-33.71858597-75.43230056-75.43230057-75.43230056S430.31064225 383.76825713000005 430.31064225 425.48197175s33.71858597 75.43230056 75.43230057 75.43230056z m-9.38558579-216.56370163c-5.21421433 0-9.38558579-4.17137146-9.38558578-9.38558579v-37.88995742c0-5.21421433 4.17137146-9.38558579 9.38558578-9.38558579h18.77117158c5.21421433 0 9.38558579 4.17137146 9.38558578 9.38558579v37.88995742c0 5.21421433-4.17137146 9.38558579-9.38558578 9.38558579H496.35735703z m165.11678696 11.47127151c3.47614289 3.82375718 3.1285286 9.38558579-0.69522857 12.86172868l-26.76630021 26.76630019c-3.82375718 3.47614289-9.73320007 3.47614289-13.55695724 0l-13.20934296-13.55695724c-3.47614289-3.82375718-3.47614289-9.73320007 0-13.55695725l26.7663002-26.76630019 0.34761429-0.3476143c3.47614289-3.47614289 9.38558579-3.1285286 12.86172867 0.3476143l13.55695725 13.55695724c0.69522858 0.34761428 0.69522858 0.34761428 0.69522857 0.69522857z m-253.75843048 20.50924302l-13.20934296 13.20934295c-3.82375718 3.82375718-9.73320007 3.82375718-13.55695724 0l-26.76630021-26.7663002-0.34761428-0.34761429c-3.47614289-3.47614289-3.1285286-9.38558579 0.34761428-12.86172866l13.55695725-13.55695725 0.34761429-0.34761428c3.47614289-3.47614289 9.38558579-3.1285286 12.86172867 0.34761428l26.7663002 26.7663002c3.82375718 3.47614289 3.82375718 9.73320007 0 13.55695725z m295.81975937 99.76530075v18.77117157c0 5.21421433-4.17137146 9.38558579-9.38558579 9.38558578H656.25992967c-5.21421433 0-9.38558579-4.17137146-9.38558579-9.38558578v-18.77117157c0-5.21421433 4.17137146-9.38558579 9.38558579-9.38558578h37.88995742c5.21421433 0 9.38558579 4.17137146 9.38558579 9.38558578zM355.22595597 406.71080017c5.21421433 0 9.38558579 4.17137146 9.38558579 9.38558579v18.77117157c0 5.21421433-4.17137146 9.38558579-9.38558579 9.38558578H317.68361283c-5.21421433 0-9.38558579-4.17137146-9.38558579-9.38558579v-18.77117156c0-5.21421433 4.17137146-9.38558579 9.38558579-9.38558578h37.54234314z"  horiz-adv-x="1024" />

    
    <glyph glyph-name="MTU" unicode="&#59194;" d="M170.496 810.496v-853.504h682.496V810.496H170.496z m597.504-768H256v170.496h512v-170.496z m0 256H256V725.504h512v-427.008zM512 170.496h85.504v-85.504H512v85.504z m128 0h85.504v-85.504H640v85.504zM584.704 563.2v-94.208h23.552v-47.104H537.6V610.304h47.104l-70.656 94.208-70.144-94.208h47.104v-187.904H420.352V471.04c16.384 8.704 28.16 25.6 28.16 45.568 0 28.672-23.04 51.712-51.712 51.712s-51.712-23.04-51.712-51.712c0-19.968 11.776-36.864 28.16-45.568v-48.64c0-26.112 20.992-47.104 47.104-47.104h70.656v-54.272c-16.896-8.704-28.16-25.6-28.16-46.08 0-28.672 23.04-51.712 51.712-51.712s51.712 23.04 51.712 51.712c0 19.968-11.776 37.376-28.16 46.08v54.272h70.656c26.112 0 47.104 20.992 47.104 47.104v47.104h23.552V563.2h-94.72z"  horiz-adv-x="1024" />

    
    <glyph glyph-name="RTU" unicode="&#59195;" d="M287.744 728.064h448c66.048 0 119.808-53.76 119.808-119.808v-448c0-66.048-53.76-119.808-119.808-119.808H287.744c-66.048 0-119.808 53.76-119.808 119.808V608.256c0 66.048 53.76 119.808 119.808 119.808z m0-48.128c-39.936 0-72.192-32.256-72.192-72.192v-448c0-39.936 32.256-72.192 72.192-72.192h448c39.936 0 72.192 32.256 72.192 72.192V608.256c0 39.936-32.256 72.192-72.192 72.192H287.744v-0.512zM384 832c15.872 0 24.064-8.192 24.064-24.064v-79.872c0-15.872-8.192-24.064-24.064-24.064s-24.064 8.192-24.064 24.064V807.936c0 15.872 8.192 24.064 24.064 24.064zM512 832c15.872 0 24.064-8.192 24.064-24.064v-79.872c0-15.872-8.192-24.064-24.064-24.064s-24.064 8.192-24.064 24.064V807.936c0 15.872 8.192 24.064 24.064 24.064zM640 832c15.872 0 24.064-8.192 24.064-24.064v-79.872c0-15.872-8.192-24.064-24.064-24.064s-24.064 8.192-24.064 24.064V807.936c0 15.872 8.192 24.064 24.064 24.064zM384 64c15.872 0 24.064-8.192 24.064-24.064v-79.872c0-15.872-8.192-24.064-24.064-24.064s-24.064 8.192-24.064 24.064v79.872c0 15.872 8.192 24.064 24.064 24.064zM512 64c15.872 0 24.064-8.192 24.064-24.064v-79.872c0-15.872-8.192-24.064-24.064-24.064s-24.064 8.192-24.064 24.064v79.872c0 15.872 8.192 24.064 24.064 24.064zM640 64c15.872 0 24.064-8.192 24.064-24.064v-79.872c0-15.872-8.192-24.064-24.064-24.064s-24.064 8.192-24.064 24.064v79.872c0 15.872 8.192 24.064 24.064 24.064zM192 512c0-15.872-8.192-24.064-24.064-24.064H88.064c-15.872 0-24.064 8.192-24.064 24.064s8.192 24.064 24.064 24.064h79.872c15.872 0 24.064-8.192 24.064-24.064zM192 384c0-15.872-8.192-24.064-24.064-24.064H88.064c-15.872 0-24.064 8.192-24.064 24.064s8.192 24.064 24.064 24.064h79.872c15.872 0 24.064-8.192 24.064-24.064zM192 256c0-15.872-8.192-24.064-24.064-24.064H88.064c-15.872 0-24.064 8.192-24.064 24.064s8.192 24.064 24.064 24.064h79.872c15.872 0 24.064-8.192 24.064-24.064zM960 512c0-15.872-8.192-24.064-24.064-24.064h-79.872c-15.872 0-24.064 8.192-24.064 24.064s8.192 24.064 24.064 24.064h79.872c15.872 0 24.064-8.192 24.064-24.064zM960 384c0-15.872-8.192-24.064-24.064-24.064h-79.872c-15.872 0-24.064 8.192-24.064 24.064s8.192 24.064 24.064 24.064h79.872c15.872 0 24.064-8.192 24.064-24.064zM960 256c0-15.872-8.192-24.064-24.064-24.064h-79.872c-15.872 0-24.064 8.192-24.064 24.064s8.192 24.064 24.064 24.064h79.872c15.872 0 24.064-8.192 24.064-24.064zM791.04 454.144h-116.224v46.592h116.224v-46.592z m0-139.776h-116.224v46.592h116.224v-46.592zM349.184 454.144H232.96v46.592h116.224v-46.592z m0-139.776H232.96v46.592h116.224v-46.592z m349.184-69.632H325.632v256h372.224v-256h0.512z"  horiz-adv-x="1024" />

    
    <glyph glyph-name="Tamper" unicode="&#59193;" d="M555.52 508.416c-27.136-23.04-62.976-38.4-105.984-43.52v-148.48c0-99.84 62.976-166.4 190.976-245.76 128 79.36 190.976 145.92 190.976 245.76v148.48c-29.184 5.12-62.976 20.48-96.768 43.52h-179.2z m232.96-187.904c0-69.12-47.104-120.32-144.896-192-99.84 71.68-150.016 123.392-150.016 192V425.472c34.304 11.776 70.656 20.992 97.28 45.056l120.832-3.072c27.136-17.408 52.736-29.696 76.288-41.984v-104.96zM372.736 602.624h-66.56c-12.288 0-23.552-10.752-23.552-23.552v-4.608c0-12.288 10.752-23.552 23.552-23.552H373.76c12.288 0 23.552 10.752 23.552 23.552v4.608c0 13.312-11.776 24.576-24.576 23.552zM254.464 367.616c-10.752 0-21.504 9.728-21.504 21.504l2.048 237.568c0 10.752 9.728 21.504 21.504 21.504h413.696c10.752 0 21.504-9.728 21.504-21.504v-85.504l45.568-1.536V620.544c0 43.008-35.84 77.824-76.8 76.8H268.288c-40.96 0-76.8-34.816-76.8-76.8v-224.256c0-40.96 34.816-76.8 76.8-76.8h144.896l-1.024 48.128H254.464z"  horiz-adv-x="1024" />

    
    <glyph glyph-name="Camera-qiangshi" unicode="&#58946;" d="M705.536 293.376l-7.68-4.096-551.424 9.216c-15.36 1.536-27.136 5.12-38.912 17.92-9.728 9.728-16.896 24.576-16.896 39.936l3.072 193.024c1.536 15.36 5.12 27.136 17.92 38.912 9.216 9.728 24.576 17.92 39.936 16.896L752.64 592.896c6.656 0 10.752-0.512 12.8-3.584 2.56-3.584 3.072-7.68 1.536-12.8l-52.736-274.944c-1.536-4.096-5.12-6.144-8.704-8.192zM127.488 540.16l-2.56-174.592c0-11.776 7.68-27.648 20.48-28.16l529.92-6.144 41.984 229.376-563.2 2.56c-23.552 0-25.088-13.312-26.624-23.04zM677.376 244.224c-11.264-6.144-24.576-8.704-34.304-8.704l-444.416 3.584c-13.312 0.512-23.552 1.536-31.232 12.288-9.728 9.216-8.704 34.304-11.264 47.616l3.584 11.776c-0.512 9.728 7.168 13.824 10.752 25.6l524.288-4.608c9.728-9.216 13.824-7.168 15.872-11.264l4.096-7.68c0.512-19.456-10.24-44.544-23.04-56.32-6.656-8.192-10.752-10.24-14.336-12.288z m-484.864 59.392l-1.536-5.632c0-4.096-1.024-18.432 2.56-23.04 3.072-3.584 6.656-3.584 11.776-3.584l444.416-3.584c25.088-1.024 28.16 19.968 35.328 33.792l-492.544 2.048z m-12.288 176.128c8.192-15.36 25.6-20.48 40.96-12.288s20.48 25.6 12.288 40.96-25.6 20.48-40.96 12.288-20.48-25.6-12.288-40.96zM761.344 296.448c-6.144 1.024-14.336 6.144-12.288 15.872l46.592 221.696c2.56 9.728 8.192 13.312 18.432 10.24 9.728-2.56 12.8-9.216 10.752-18.944l-46.08-220.672c-2.56-6.144-10.752-9.728-17.408-8.192z"  horiz-adv-x="1024" />

    
    <glyph glyph-name="zidingyi" unicode="&#58945;" d="M805.888 393.216L370.176 582.144l103.424-493.568 100.864 178.688 255.488-259.584 71.68 62.464-255.488 260.096zM577.536-32.256H130.048c-28.672 0-52.224 23.552-52.224 52.224V756.224c0 28.672 23.552 52.224 52.224 52.224h736.256c28.672 0 52.224-23.552 52.224-52.224v-391.168c0-19.968-15.872-35.84-35.84-35.84s-35.84 15.872-35.84 35.84V736.768H149.504v-697.344h428.032c19.968 0 35.84-15.872 35.84-35.84s-15.872-35.84-35.84-35.84z"  horiz-adv-x="1024" />

    
    <glyph glyph-name="bili1" unicode="&#58943;" d="M326.656 601.088h40.448v-450.048H315.392V538.112C286.72 508.928 251.392 488.96 209.408 476.16V527.872c19.968 5.632 41.472 14.336 62.976 27.136 21.504 13.824 38.912 29.184 54.272 46.08zM727.552 601.088h40.448v-450.048h-51.712V538.112c-28.16-29.184-63.488-49.152-105.984-61.952V527.872c19.968 5.632 41.472 14.336 62.976 27.136 21.504 13.824 38.912 29.184 54.272 46.08zM517.632 457.728c10.24 0 19.456-3.584 27.136-11.264s11.264-16.384 11.264-27.136c0-10.752-3.584-19.968-11.264-27.648-7.68-7.168-16.896-10.752-27.136-10.752-11.264 0-19.968 3.584-27.136 10.752-7.68 7.68-11.264 16.896-11.264 27.648 0 10.752 3.584 19.456 11.264 27.136 7.168 7.68 15.872 11.264 27.136 11.264zM517.632 227.328c10.24 0 19.456-3.584 27.136-11.264 7.68-7.68 11.264-16.384 11.264-27.136 0-10.752-3.584-19.968-11.264-27.648-7.68-7.168-16.896-10.752-27.136-10.752-11.264 0-19.968 3.584-27.136 10.752-7.68 7.68-11.264 16.896-11.264 27.648s3.584 19.456 11.264 27.136c7.168 7.168 15.872 11.264 27.136 11.264z"  horiz-adv-x="1024" />

    
    <glyph glyph-name="bili2" unicode="&#58944;" d="M517.632 457.728c10.24 0 19.456-3.584 27.136-11.264s11.264-16.384 11.264-27.136c0-10.752-3.584-19.968-11.264-27.648-7.68-7.168-16.896-10.752-27.136-10.752-11.264 0-19.968 3.584-27.136 10.752-7.68 7.68-11.264 16.896-11.264 27.648 0 10.752 3.584 19.456 11.264 27.136 7.168 7.68 15.872 11.264 27.136 11.264zM517.632 227.328c10.24 0 19.456-3.584 27.136-11.264 7.68-7.68 11.264-16.384 11.264-27.136 0-10.752-3.584-19.968-11.264-27.648-7.68-7.168-16.896-10.752-27.136-10.752-11.264 0-19.968 3.584-27.136 10.752-7.68 7.68-11.264 16.896-11.264 27.648s3.584 19.456 11.264 27.136c7.168 7.168 15.872 11.264 27.136 11.264zM770.048 610.304c41.472 0 75.776-11.776 102.912-35.84 26.624-24.064 40.448-56.32 40.448-95.232 0-38.912-15.36-74.24-44.032-105.984-15.872-16.384-46.592-40.96-93.184-72.704-57.344-38.4-90.112-73.216-98.304-103.424h236.544v-46.08H614.4c0 40.96 14.336 78.336 44.544 111.616 17.408 19.968 49.664 47.104 97.792 79.872 35.328 25.088 58.88 43.52 70.656 56.32 22.528 24.576 34.816 51.712 34.816 80.896 0 27.648-8.192 48.64-24.576 63.488-16.384 15.36-39.936 22.528-68.608 22.528-30.72 0-54.784-10.24-71.168-31.744-17.408-19.968-27.136-50.688-27.648-90.112h-51.712c0 50.688 14.336 90.624 42.496 120.32 26.624 31.232 64 46.08 109.056 46.08zM276.48 610.304c41.472 0 75.776-11.776 102.912-35.84 26.624-24.064 40.448-56.32 40.448-95.232 0-38.912-15.36-74.24-44.032-105.984-15.872-16.384-46.592-40.96-93.184-72.704-57.344-38.4-90.112-73.216-98.304-103.424h236.544v-46.08H120.32c0 40.96 14.336 78.336 44.544 111.616 17.408 19.968 49.664 47.104 97.792 79.872 35.328 25.088 58.88 43.52 70.656 56.32 22.528 24.576 34.816 51.712 34.816 80.896 0 27.648-8.192 48.64-24.576 63.488-16.384 15.36-39.936 22.528-68.608 22.528-30.72 0-54.784-10.24-71.168-31.744-17.408-19.968-27.136-50.688-27.648-90.112H123.904c0 50.688 14.336 90.624 42.496 120.32 27.648 31.232 65.024 46.08 110.08 46.08z"  horiz-adv-x="1024" />

    
    <glyph glyph-name="chair" unicode="&#59192;" d="M769.7 506.3h-96.9l-19.5 284.8C651.8 811.9 632.1 829 609.5 829h-192c-22.6 0-42.3-17.1-43.7-38L355 506.2H254.3c-10.6 0-19.3-8.6-19.3-19v-223.3c0-10.5 8.7-19 19.3-19h32.4c0.6-5.4 1.9-10.3 3.6-13.4 5.3-9.4 23.6-24.3 46.2-24.3h145.8v-40.9c-10.1-8.3-16.6-20.8-16.6-34.8 0-21.5 15.3-39.5 35.7-44v-20.8c-4.7-1.4-8.2-5.8-8.2-10.9v-17.5l-179.8-26.4c-4.7 2-9.9 3.1-15.4 3.1-21.3 0-38.6-17-38.6-38s17.3-38 38.6-38 38.6 17 38.6 38c0 3.6-0.5 7.1-1.5 10.4L494 10.799999999999955c-12.4-6.3-20.8-19.1-20.8-33.8 0-21 17.3-38 38.6-38s38.6 17 38.6 38c0 15.7-9.6 29.1-23.3 34.9L694-12.600000000000023c-0.9-3.3-1.5-6.8-1.5-10.4 0-21 17.3-38 38.6-38s38.6 17 38.6 38-17.3 38-38.6 38c-5.5 0-10.7-1.1-15.4-3.1l-186 27.4v16.6c0 5.1-3.5 9.5-8.2 10.9v20.8c20.4 4.5 35.7 22.5 35.7 44 0 14-6.4 26.5-16.6 34.8v40.9h145.9c31.2 0 43.4 23.6 45.4 33.5 0.3 1.3 0.5 2.7 0.8 4.2h36.7c10.6 0 19.3 8.6 19.3 19V487.3c0.3 10.4-8.4 19-19 19zM278.4 292.70000000000005V458.5c0 10.3 8.5 18.6 18.9 18.6H353L341.7 306c0-23.7-41.5-17.9-49.4-29.5-0.3-0.4-0.6-0.9-0.9-1.4-7.5 2.4-13 9.4-13 17.6z m467.2 0c0-9.3-7.1-17.1-16.1-18.4-1.5 2.2-3.3 4.2-5.8 5.9-13.8 9.7-37.1-1.5-37.1 24.1l-11.8 172.9h51.9c10.4 0 18.9-8.4 18.9-18.6v-165.9z m0 0"  horiz-adv-x="1024" />

    
    <glyph glyph-name="gudingA" unicode="&#59190;" d="M512.512-56.832c-243.2 0-441.344 197.12-441.344 440.32s197.12 441.344 440.32 441.344 441.344-197.12 441.344-440.32c0-117.248-46.592-228.864-128.512-311.808-82.432-83.456-194.56-129.536-311.808-129.536z m0 755.712c-173.568 0-314.368-140.8-314.368-314.368s140.8-314.368 314.368-314.368 314.368 140.8 314.368 314.368-140.288 314.368-314.368 314.368zM553.472 452.608l147.968-13.312-96.768-101.888 122.368-116.224-99.84 17.408-60.928 57.856-97.28-101.888-17.92 144.384-142.336 135.168-44.032-46.592-20.48 19.456 193.536 203.776 20.48-19.456-44.032-46.592 139.264-132.096z"  horiz-adv-x="1024" />

    
    <glyph glyph-name="gudingB" unicode="&#59191;" d="M512.512-56.832c-243.2 0-441.344 197.12-441.344 440.32s197.12 441.344 440.32 441.344 441.344-197.12 441.344-440.32c0-117.248-46.592-228.864-128.512-311.808-82.432-83.456-194.56-129.536-311.808-129.536z m0 755.712c-173.568 0-314.368-140.8-314.368-314.368s140.8-314.368 314.368-314.368 314.368 140.8 314.368 314.368-140.288 314.368-314.368 314.368zM588.288 387.072l92.16-116.736h-140.288V102.4l-56.32 84.48V271.36H343.552l92.16 112.128V579.584H371.712v28.16h281.088v-28.16H588.8v-192.512z"  horiz-adv-x="1024" />

    
    <glyph glyph-name="doorcontact" unicode="&#59180;" d="M239.616 615.9359999999999c-29.184 0-53.248-23.552-53.248-52.736v-472.576c0-23.552 15.36-44.032 37.888-50.176l209.408-80.896c4.608-2.56 9.728-4.096 15.36-4.096 15.872 0 29.184 13.312 29.184 29.184v53.76h103.424c29.184 0 52.736 23.552 52.736 52.736V563.2c0 29.184-23.552 52.736-52.736 52.736H239.616zM460.8 510.976L274.944 578.048h306.688c8.192 0 14.848-6.656 14.848-14.848v-472.576c0-8.192-6.656-14.848-14.848-14.848H478.208V479.744c0 12.8-6.656 24.576-17.408 31.232zM439.808 0l-200.192 75.776h-0.512l-7.168 4.096c-4.096 2.56-7.168 7.68-7.168 12.288V537.088c0 7.68 5.12 11.264 7.68 12.8 2.048 1.024 8.192 3.584 14.848 0l192.512-71.168V0zM379.904 266.24c0-18.432 11.264-33.792 16.896-33.792 9.216 0 16.896 8.192 16.896 33.792 0 18.432-11.264 33.792-16.896 33.792-9.728 0-16.896-8.192-16.896-33.792zM596.48 677.376c31.744-4.096 59.904-20.48 79.36-46.08 19.456-25.088 28.16-56.832 23.552-88.576-1.536-9.728-10.24-16.384-19.968-14.848-9.216 1.536-15.872 10.24-14.848 19.456 3.072 22.016-3.072 44.544-16.896 62.464-13.824 17.92-33.792 29.696-56.32 32.256-9.728 1.024-16.384 9.728-15.36 19.456 1.024 9.728 9.728 16.384 19.456 15.36 0.512 1.024 1.024 1.024 1.024 0.512z m9.216 67.584c49.664-6.656 94.208-32.256 124.416-71.68 30.72-39.936 43.52-90.112 37.376-138.752-1.536-9.728-10.24-16.384-19.968-14.848-9.216 1.536-15.872 10.24-14.848 19.456 5.12 39.936-5.632 80.896-30.208 113.152-25.088 32.768-61.44 53.248-101.376 58.368-9.728 1.024-16.384 9.728-15.36 19.456 1.024 9.728 9.728 16.384 19.456 15.36 0 0 0-0.512 0.512-0.512z m8.704 67.584c67.584-8.704 128.512-44.032 169.984-97.792 41.984-54.784 59.392-122.368 50.688-189.44-1.024-9.728-10.24-16.384-19.968-15.36-9.728 1.024-16.384 10.24-15.36 19.968 7.68 57.856-8.192 116.736-44.032 163.328-36.352 47.104-88.576 76.8-146.432 84.48-9.728 1.536-16.384 10.24-14.848 19.968 2.048 9.728 10.24 15.872 19.968 14.848z"  horiz-adv-x="1024" />

    
    <glyph glyph-name="cardreader" unicode="&#59181;" d="M766.976 411.648h-38.912v56.32h38.912c14.336 0 25.6 12.288 25.6 25.6V642.048c0 14.336-12.288 25.6-25.6 25.6H256c-14.336 0-25.6-12.288-25.6-25.6v-148.48c0-14.336 12.288-25.6 25.6-25.6h38.912v-56.32H256c-45.056 0-81.92 36.864-81.92 81.92V642.048c0 45.056 36.864 81.92 81.92 81.92h512c45.056 0 81.92-36.864 81.92-81.92v-149.504c0-44.032-35.84-80.896-82.944-80.896zM718.848 515.072H307.2c-19.456 0-35.84 14.336-35.84 32.768v11.264c0 17.408 15.36 32.768 35.84 32.768h411.648c19.456 0 35.84-14.336 35.84-32.768V547.84c0-17.408-16.384-32.768-35.84-32.768zM624.64 44.032H400.384c-41.984 0-76.8 35.84-76.8 76.8V513.024c0 41.984 35.84 76.8 76.8 76.8H624.64c41.984 0 76.8-35.84 76.8-76.8v-392.192c1.024-40.96-33.792-76.8-76.8-76.8z m-224.256 491.52c-11.264 0-20.48-10.24-20.48-20.48v-392.192c0-11.264 10.24-20.48 20.48-20.48H624.64c11.264 0 20.48 10.24 20.48 20.48V513.024c0 11.264-10.24 20.48-20.48 20.48l-224.256 2.048zM479.232 204.8h-6.144c-16.384 0-30.72 14.336-30.72 30.72V281.6c0 16.384 14.336 30.72 30.72 30.72h6.144c16.384 0 30.72-14.336 30.72-30.72v-45.056c1.024-16.384-13.312-31.744-30.72-31.744z"  horiz-adv-x="1024" />

    
    <glyph glyph-name="horn" unicode="&#59182;" d="M763.904 742.4c-6.144 9.216-17.408 17.408-28.672 18.432-11.264 2.048-23.552 0-33.792-7.168L410.624 550.912h-91.136c-37.888 0-66.56-29.696-66.56-66.56v-204.8c0-37.888 29.696-66.56 66.56-66.56h87.04l293.888-198.656c14.336-9.216 32.768-9.216 46.08-2.048 14.336 8.192 23.552 23.552 23.552 39.936v665.6c1.024 8.192-1.024 16.384-6.144 24.576z m-59.392-69.632v-579.584l-266.24 182.272c-4.096 2.048-9.216 4.096-13.312 4.096h-83.968c-6.144 0-11.264 2.048-16.384 7.168-4.096 4.096-7.168 10.24-7.168 17.408V462.848c0 6.144 2.048 11.264 7.168 16.384 4.096 4.096 9.216 7.168 16.384 7.168h83.968c4.096 0 9.216 1.024 13.312 4.096 0-2.048 266.24 182.272 266.24 182.272z"  horiz-adv-x="1024" />

    
    </font>
</defs>
</svg>
